*
*
G04 PADS 9.3.1 Build Number: 461647 generated Gerber (RS-274-X) file*
G04 PC Version=2.1*
*
%IN "ble.pcb"*%
*
%MOIN*%
*
%FSLAX35Y35*%
*
*
*
*
G04 PC Standard Apertures*
*
*
G04 Thermal Relief Aperture macro.*
%AMTER*
1,1,$1,0,0*
1,0,$1-$2,0,0*
21,0,$3,$4,0,0,45*
21,0,$3,$4,0,0,135*
%
*
*
G04 Annular Aperture macro.*
%AMANN*
1,1,$1,0,0*
1,0,$2,0,0*
%
*
*
G04 Odd Aperture macro.*
%AMODD*
1,1,$1,0,0*
1,0,$1-0.005,0,0*
%
*
*
G04 PC Custom Aperture Macros*
*
*
*
*
*
*
G04 PC Aperture Table*
*
%ADD017C,0.01*%
%ADD023C,0.001*%
%ADD034C,0.005*%
%ADD043C,0.00984*%
%ADD044C,0.00492*%
*
*
*
*
G04 PC Circuitry*
G04 Layer Name ble.pcb - circuitry*
%LPD*%
*
*
G04 PC Custom Flashes*
G04 Layer Name ble.pcb - flashes*
%LPD*%
*
*
G04 PC Circuitry*
G04 Layer Name ble.pcb - circuitry*
%LPD*%
*
G54D17*
G01X178500Y116163D02*
Y109600D01*
X176455Y116163D02*
Y109600D01*
Y116163D02*
X173273Y109600D01*
Y116163D02*
Y109600D01*
X171227Y116163D02*
Y109600D01*
Y116163D02*
X168273D01*
X171227Y113038D02*
X169409D01*
X171227Y109600D02*
X168273D01*
X166227Y116163D02*
Y109600D01*
Y116163D02*
X164182D01*
X164182D02*
X163500Y115850D01*
X163273Y115538*
X163273D02*
X163045Y114913D01*
X163045D02*
Y114288D01*
X163045D02*
X163273Y113663D01*
X163273D02*
X163500Y113350D01*
X164182Y113038*
X164182D02*
X166227D01*
X164636D02*
X163045Y109600D01*
X159409Y116163D02*
Y109600D01*
X161000Y116163D02*
X157818D01*
X155773D02*
Y109600D01*
X151909Y116163D02*
X153727Y109600D01*
X151909Y116163D02*
X150091Y109600D01*
X153045Y111788D02*
X150773D01*
X142591Y114600D02*
Y114913D01*
X142591D02*
X142364Y115538D01*
X142364D02*
X142136Y115850D01*
X141682Y116163*
X141682D02*
X140773D01*
X140773D02*
X140318Y115850D01*
X140091Y115538*
X140091D02*
X139864Y114913D01*
X139864D02*
Y114288D01*
X139864D02*
X140091Y113663D01*
X140091D02*
X140545Y112725D01*
X142818Y109600*
X139636*
X136227Y116163D02*
X136909Y115850D01*
X137364Y114913*
X137364D02*
X137591Y113350D01*
Y112413*
X137591D02*
X137364Y110850D01*
X136909Y109913*
X136909D02*
X136227Y109600D01*
X135773*
X135091Y109913*
X135091D02*
X134636Y110850D01*
X134409Y112413*
X134409D02*
Y113350D01*
X134636Y114913*
X134636D02*
X135091Y115850D01*
X135773Y116163*
X135773D02*
X136227D01*
X132364Y114913D02*
X131909Y115225D01*
X131227Y116163*
X131227D02*
Y109600D01*
X126909Y116163D02*
X129182Y111788D01*
X129182D02*
X125773D01*
X126909Y116163D02*
Y109600D01*
G54D23*
G54D34*
X193931Y110305D02*
Y108238D01*
X193286Y110305D02*
Y108238D01*
Y110305D02*
X192284Y108238D01*
Y110305D02*
Y108238D01*
X191640Y110305D02*
Y108238D01*
Y110305D02*
X190710D01*
X191640Y109320D02*
X191067D01*
X191640Y108238D02*
X190710D01*
X190065Y110305D02*
Y108238D01*
Y110305D02*
X189421D01*
X189206Y110206*
X189135Y110108*
X189063Y109911*
Y109714*
X189135Y109517*
X189206Y109419*
X189421Y109320*
X190065*
X189564D02*
X189063Y108238D01*
X187918Y110305D02*
Y108238D01*
X188419Y110305D02*
X187417D01*
X186773D02*
Y108238D01*
X185556Y110305D02*
X186128Y108238D01*
X185556Y110305D02*
X184983Y108238D01*
X185914Y108927D02*
X185198D01*
X178405Y107681D02*
Y104400D01*
X179200Y107681D02*
X177609D01*
X176586D02*
Y104400D01*
Y107681D02*
X175109D01*
X176586Y106119D02*
X175677D01*
X176586Y104400D02*
X175109D01*
X174086Y107681D02*
Y104400D01*
Y107681D02*
X173177Y104400D01*
X172268Y107681D02*
X173177Y104400D01*
X172268Y107681D02*
Y104400D01*
X171245Y107681D02*
Y104400D01*
Y107681D02*
X170223D01*
X169882Y107525*
X169768Y107369*
X169655Y107056*
Y106588*
X169655D02*
X169768Y106275D01*
X169882Y106119*
X170223Y105963*
X170223D02*
X171245D01*
X167950Y107681D02*
X168177Y107525D01*
X168405Y107213*
X168405D02*
X168518Y106900D01*
X168632Y106431*
Y105650*
X168518Y105181*
X168405Y104869*
X168177Y104556*
X167950Y104400*
X167495*
X167268Y104556*
X167041Y104869*
X166927Y105181*
X166814Y105650*
Y106431*
X166927Y106900*
X167041Y107213*
X167041D02*
X167268Y107525D01*
X167495Y107681*
X167950*
X162041D02*
X163177Y105494D01*
X161473*
X162041Y107681D02*
Y104400D01*
X159768Y107681D02*
X160109Y107525D01*
X160336Y107056*
X160450Y106275*
Y105806*
X160336Y105025*
X160109Y104556*
X159768Y104400*
X159541*
X159200Y104556*
X158973Y105025*
X158859Y105806*
Y106275*
X158973Y107056*
X159200Y107525*
X159541Y107681*
X159768*
X157155D02*
X157495Y107525D01*
X157723Y107056*
X157836Y106275*
Y105806*
X157723Y105025*
X157495Y104556*
X157155Y104400*
X156927*
X156586Y104556*
X156359Y105025*
X156245Y105806*
Y106275*
X156359Y107056*
X156586Y107525*
X156927Y107681*
X157155*
X154541D02*
X154882Y107525D01*
X155109Y107056*
X155223Y106275*
Y105806*
X155109Y105025*
X154882Y104556*
X154541Y104400*
X154314*
X153973Y104556*
X153745Y105025*
X153632Y105806*
Y106275*
X153745Y107056*
X153973Y107525*
X154314Y107681*
X154541*
X149995D02*
Y104400D01*
Y107681D02*
X148973D01*
X148632Y107525*
X148518Y107369*
X148405Y107056*
Y106744*
X148518Y106431*
X148632Y106275*
X148973Y106119*
X149995D02*
X148973D01*
X148632Y105963*
X148632D02*
X148518Y105806D01*
X148405Y105494*
Y105025*
X148518Y104713*
X148518D02*
X148632Y104556D01*
X148973Y104400*
X149995*
X147382Y107681D02*
Y104400D01*
X146018*
X144995Y107681D02*
Y104400D01*
Y107681D02*
X143518D01*
X144995Y106119D02*
X144086D01*
X144995Y104400D02*
X143518D01*
X138973Y107681D02*
X139882Y104400D01*
X138973Y107681D02*
X138064Y104400D01*
X139541Y105494D02*
X138405D01*
X135677Y107681D02*
Y104400D01*
Y106119D02*
X135905Y106431D01*
X136132Y106588*
X136132D02*
X136473D01*
X136473D02*
X136700Y106431D01*
X136927Y106119*
X137041Y105650*
Y105338*
X137041D02*
X136927Y104869D01*
X136700Y104556*
X136473Y104400*
X136132*
X135905Y104556*
X135677Y104869*
X133291Y107681D02*
Y104400D01*
Y106119D02*
X133518Y106431D01*
X133745Y106588*
X133745D02*
X134086D01*
X134086D02*
X134314Y106431D01*
X134541Y106119*
X134655Y105650*
Y105338*
X134655D02*
X134541Y104869D01*
X134314Y104556*
X134086Y104400*
X133745*
X133518Y104556*
X133291Y104869*
X132268Y105806D02*
X130223D01*
X128632Y106588D02*
X128859Y106431D01*
X129086Y106119*
X129200Y105650*
Y105338*
X129200D02*
X129086Y104869D01*
X128859Y104556*
X128632Y104400*
X128291*
X128064Y104556*
X127836Y104869*
X127723Y105338*
X127723D02*
Y105650D01*
X127836Y106119*
X128064Y106431*
X128291Y106588*
X128291D02*
X128632D01*
X126700D02*
Y104400D01*
Y105963D02*
X126359Y106431D01*
X126132Y106588*
X126132D02*
X125791D01*
X125791D02*
X125564Y106431D01*
X125450Y105963*
X125450D02*
Y104400D01*
X121814Y107681D02*
Y104400D01*
Y107681D02*
X120791D01*
X120450Y107525*
X120336Y107369*
X120223Y107056*
Y106744*
X120336Y106431*
X120450Y106275*
X120791Y106119*
X121814D02*
X120791D01*
X120450Y105963*
X120450D02*
X120336Y105806D01*
X120223Y105494*
Y105025*
X120336Y104713*
X120336D02*
X120450Y104556D01*
X120791Y104400*
X121814*
X118632Y106588D02*
X118859Y106431D01*
X119086Y106119*
X119200Y105650*
Y105338*
X119200D02*
X119086Y104869D01*
X118859Y104556*
X118632Y104400*
X118291*
X118064Y104556*
X117836Y104869*
X117723Y105338*
X117723D02*
Y105650D01*
X117836Y106119*
X118064Y106431*
X118291Y106588*
X118291D02*
X118632D01*
X115336D02*
Y104400D01*
Y106119D02*
X115564Y106431D01*
X115791Y106588*
X115791D02*
X116132D01*
X116132D02*
X116359Y106431D01*
X116586Y106119*
X116700Y105650*
Y105338*
X116700D02*
X116586Y104869D01*
X116359Y104556*
X116132Y104400*
X115791*
X115564Y104556*
X115336Y104869*
X114314Y106588D02*
Y104400D01*
Y105650D02*
X114200Y106119D01*
X113973Y106431*
X113745Y106588*
X113745D02*
X113405D01*
X111018Y107681D02*
Y104400D01*
Y106119D02*
X111245Y106431D01*
X111473Y106588*
X111473D02*
X111814D01*
X111814D02*
X112041Y106431D01*
X112268Y106119*
X112382Y105650*
Y105338*
X112382D02*
X112268Y104869D01*
X112041Y104556*
X111814Y104400*
X111473*
X111245Y104556*
X111018Y104869*
X184095Y126000D02*
X184209Y126313D01*
X184209D02*
X184436Y126625D01*
X184664Y126781*
X185118*
X185345Y126625*
X185573Y126313*
X185573D02*
X185686Y126000D01*
X185800Y125531*
Y124750*
X185686Y124281*
X185573Y123969*
X185345Y123656*
X185118Y123500*
X184664*
X184436Y123656*
X184209Y123969*
X184095Y124281*
Y124750*
X184664D02*
X184095D01*
X183073Y126781D02*
Y123500D01*
Y126781D02*
X181482Y123500D01*
Y126781D02*
Y123500D01*
X180459Y126781D02*
Y123500D01*
Y126781D02*
X179664D01*
X179323Y126625*
X179095Y126313*
X179095D02*
X178982Y126000D01*
X178868Y125531*
Y124750*
X178982Y124281*
X179095Y123969*
X179323Y123656*
X179664Y123500*
X180459*
X120395Y125200D02*
X120509Y125513D01*
X120509D02*
X120736Y125825D01*
X120964Y125981*
X121418*
X121645Y125825*
X121873Y125513*
X121873D02*
X121986Y125200D01*
X122100Y124731*
Y123950*
X121986Y123481*
X121873Y123169*
X121645Y122856*
X121418Y122700*
X120964*
X120736Y122856*
X120509Y123169*
X120395Y123481*
Y123950*
X120964D02*
X120395D01*
X119373Y125981D02*
Y122700D01*
Y125981D02*
X117782Y122700D01*
Y125981D02*
Y122700D01*
X116759Y125981D02*
Y122700D01*
Y125981D02*
X115964D01*
X115623Y125825*
X115395Y125513*
X115395D02*
X115282Y125200D01*
X115168Y124731*
Y123950*
X115282Y123481*
X115395Y123169*
X115623Y122856*
X115964Y122700*
X116759*
X187300Y196881D02*
X186391Y193600D01*
X185482Y196881D02*
X186391Y193600D01*
X182755Y196100D02*
X182868Y196413D01*
X182868D02*
X183095Y196725D01*
X183323Y196881*
X183777*
X184005Y196725*
X184232Y196413*
X184232D02*
X184345Y196100D01*
X184459Y195631*
Y194850*
X184345Y194381*
X184232Y194069*
X184005Y193756*
X183777Y193600*
X183323*
X183095Y193756*
X182868Y194069*
X182755Y194381*
X180027Y196100D02*
X180141Y196413D01*
X180141D02*
X180368Y196725D01*
X180595Y196881*
X181050*
X181277Y196725*
X181505Y196413*
X181505D02*
X181618Y196100D01*
X181732Y195631*
Y194850*
X181618Y194381*
X181505Y194069*
X181277Y193756*
X181050Y193600*
X180595*
X180368Y193756*
X180141Y194069*
X180027Y194381*
X120700Y196281D02*
X119791Y193000D01*
X118882Y196281D02*
X119791Y193000D01*
X116155Y195500D02*
X116268Y195813D01*
X116268D02*
X116495Y196125D01*
X116723Y196281*
X117177*
X117405Y196125*
X117632Y195813*
X117632D02*
X117745Y195500D01*
X117859Y195031*
Y194250*
X117745Y193781*
X117632Y193469*
X117405Y193156*
X117177Y193000*
X116723*
X116495Y193156*
X116268Y193469*
X116155Y193781*
X113427Y195500D02*
X113541Y195813D01*
X113541D02*
X113768Y196125D01*
X113995Y196281*
X114450*
X114677Y196125*
X114905Y195813*
X114905D02*
X115018Y195500D01*
X115132Y195031*
Y194250*
X115018Y193781*
X114905Y193469*
X114677Y193156*
X114450Y193000*
X113995*
X113768Y193156*
X113541Y193469*
X113427Y193781*
X129600Y186781D02*
Y184438D01*
X129600D02*
X129486Y183969D01*
X129259Y183656*
X128918Y183500*
X128691*
X128350Y183656*
X128123Y183969*
X128009Y184438*
X128009D02*
Y186781D01*
X125282Y186000D02*
X125395Y186313D01*
X125395D02*
X125623Y186625D01*
X125850Y186781*
X126305*
X126532Y186625*
X126759Y186313*
X126759D02*
X126873Y186000D01*
X126986Y185531*
Y184750*
X126873Y184281*
X126759Y183969*
X126532Y183656*
X126305Y183500*
X125850*
X125623Y183656*
X125395Y183969*
X125282Y184281*
X124259Y186781D02*
Y183500D01*
Y186781D02*
X123236D01*
X122895Y186625*
X122782Y186469*
X122668Y186156*
Y185844*
X122782Y185531*
X122895Y185375*
X123236Y185219*
X124259D02*
X123236D01*
X122895Y185063*
X122895D02*
X122782Y184906D01*
X122668Y184594*
Y184125*
X122782Y183813*
X122782D02*
X122895Y183656D01*
X123236Y183500*
X124259*
X121645Y186156D02*
X121418Y186313D01*
X121418D02*
X121077Y186781D01*
Y183500*
X118464Y186313D02*
X118691Y186625D01*
X119032Y186781*
X119486*
X119827Y186625*
X120055Y186313*
X120055D02*
Y186000D01*
X119941Y185688*
X119941D02*
X119827Y185531D01*
X119600Y185375*
X118918Y185063*
X118918D02*
X118691Y184906D01*
X118577Y184750*
X118464Y184438*
X118464D02*
Y183969D01*
X118691Y183656*
X119032Y183500*
X119486*
X119827Y183656*
X120055Y183969*
X117441Y186781D02*
Y183500D01*
Y186781D02*
X116645D01*
X116305Y186625*
X116077Y186313*
X116077D02*
X115964Y186000D01*
X115850Y185531*
Y184750*
X115964Y184281*
X116077Y183969*
X116305Y183656*
X116645Y183500*
X117441*
X113918Y186781D02*
X114827Y183500D01*
X113918Y186781D02*
X113009Y183500D01*
X114486Y184594D02*
X113350D01*
X130000Y176481D02*
Y174138D01*
X130000D02*
X129886Y173669D01*
X129659Y173356*
X129318Y173200*
X129091*
X128750Y173356*
X128523Y173669*
X128409Y174138*
X128409D02*
Y176481D01*
X125682Y175700D02*
X125795Y176013D01*
X125795D02*
X126023Y176325D01*
X126250Y176481*
X126705*
X126932Y176325*
X127159Y176013*
X127159D02*
X127273Y175700D01*
X127386Y175231*
Y174450*
X127273Y173981*
X127159Y173669*
X126932Y173356*
X126705Y173200*
X126250*
X126023Y173356*
X125795Y173669*
X125682Y173981*
X124659Y176481D02*
Y173200D01*
Y176481D02*
X123636D01*
X123295Y176325*
X123182Y176169*
X123068Y175856*
Y175544*
X123182Y175231*
X123295Y175075*
X123636Y174919*
X124659D02*
X123636D01*
X123295Y174763*
X123295D02*
X123182Y174606D01*
X123068Y174294*
Y173825*
X123182Y173513*
X123182D02*
X123295Y173356D01*
X123636Y173200*
X124659*
X122045Y175856D02*
X121818Y176013D01*
X121818D02*
X121477Y176481D01*
Y173200*
X118864Y176013D02*
X119091Y176325D01*
X119432Y176481*
X119886*
X120227Y176325*
X120455Y176013*
X120455D02*
Y175700D01*
X120341Y175388*
X120341D02*
X120227Y175231D01*
X120000Y175075*
X119318Y174763*
X119318D02*
X119091Y174606D01*
X118977Y174450*
X118864Y174138*
X118864D02*
Y173669D01*
X119091Y173356*
X119432Y173200*
X119886*
X120227Y173356*
X120455Y173669*
X116136Y175700D02*
X116250Y176013D01*
X116250D02*
X116477Y176325D01*
X116705Y176481*
X117159*
X117386Y176325*
X117614Y176013*
X117614D02*
X117727Y175700D01*
X117841Y175231*
Y174450*
X117727Y173981*
X117614Y173669*
X117386Y173356*
X117159Y173200*
X116705*
X116477Y173356*
X116250Y173669*
X116136Y173981*
X115114Y176481D02*
Y173200D01*
X113750*
X130400Y166581D02*
Y164238D01*
X130400D02*
X130286Y163769D01*
X130059Y163456*
X129718Y163300*
X129491*
X129150Y163456*
X128923Y163769*
X128809Y164238*
X128809D02*
Y166581D01*
X126082Y165800D02*
X126195Y166113D01*
X126195D02*
X126423Y166425D01*
X126650Y166581*
X127105*
X127332Y166425*
X127559Y166113*
X127559D02*
X127673Y165800D01*
X127786Y165331*
Y164550*
X127673Y164081*
X127559Y163769*
X127332Y163456*
X127105Y163300*
X126650*
X126423Y163456*
X126195Y163769*
X126082Y164081*
X125059Y166581D02*
Y163300D01*
Y166581D02*
X124036D01*
X123695Y166425*
X123582Y166269*
X123468Y165956*
Y165644*
X123582Y165331*
X123695Y165175*
X124036Y165019*
X125059D02*
X124036D01*
X123695Y164863*
X123695D02*
X123582Y164706D01*
X123468Y164394*
Y163925*
X123582Y163613*
X123582D02*
X123695Y163456D01*
X124036Y163300*
X125059*
X122445Y165956D02*
X122218Y166113D01*
X122218D02*
X121877Y166581D01*
Y163300*
X119150Y165800D02*
X119264Y166113D01*
X119264D02*
X119491Y166425D01*
X119718Y166581*
X120173*
X120400Y166425*
X120627Y166113*
X120627D02*
X120741Y165800D01*
X120855Y165331*
Y164550*
X120741Y164081*
X120627Y163769*
X120400Y163456*
X120173Y163300*
X119718*
X119491Y163456*
X119264Y163769*
X119150Y164081*
X118127Y166581D02*
Y163300D01*
X116764*
X115741Y166581D02*
Y163300D01*
X114150Y166581D02*
X115741Y164394D01*
X115173Y165175D02*
X114150Y163300D01*
X122795Y156100D02*
X122909Y156413D01*
X122909D02*
X123136Y156725D01*
X123364Y156881*
X123818*
X124045Y156725*
X124273Y156413*
X124273D02*
X124386Y156100D01*
X124500Y155631*
Y154850*
X124386Y154381*
X124273Y154069*
X124045Y153756*
X123818Y153600*
X123364*
X123136Y153756*
X122909Y154069*
X122795Y154381*
Y154850*
X123364D02*
X122795D01*
X121773Y156881D02*
Y153600D01*
Y156881D02*
X120750D01*
X120409Y156725*
X120295Y156569*
X120182Y156256*
Y155788*
X120182D02*
X120295Y155475D01*
X120409Y155319*
X120750Y155163*
X120750D02*
X121773D01*
X119159Y156881D02*
Y153600D01*
X117455Y156881D02*
X117682Y156725D01*
X117909Y156413*
X117909D02*
X118023Y156100D01*
X118136Y155631*
Y154850*
X118023Y154381*
X117909Y154069*
X117682Y153756*
X117455Y153600*
X117000*
X116773Y153756*
X116545Y154069*
X116432Y154381*
X116318Y154850*
Y155631*
X116432Y156100*
X116545Y156413*
X116545D02*
X116773Y156725D01*
X117000Y156881*
X117455*
X115295Y156256D02*
X115068Y156413D01*
X115068D02*
X114727Y156881D01*
Y153600*
X123895Y146100D02*
X124009Y146413D01*
X124009D02*
X124236Y146725D01*
X124464Y146881*
X124918*
X125145Y146725*
X125373Y146413*
X125373D02*
X125486Y146100D01*
X125600Y145631*
Y144850*
X125486Y144381*
X125373Y144069*
X125145Y143756*
X124918Y143600*
X124464*
X124236Y143756*
X124009Y144069*
X123895Y144381*
Y144850*
X124464D02*
X123895D01*
X122873Y146881D02*
Y143600D01*
Y146881D02*
X121850D01*
X121509Y146725*
X121395Y146569*
X121282Y146256*
Y145788*
X121282D02*
X121395Y145475D01*
X121509Y145319*
X121850Y145163*
X121850D02*
X122873D01*
X120259Y146881D02*
Y143600D01*
X118555Y146881D02*
X118782Y146725D01*
X119009Y146413*
X119009D02*
X119123Y146100D01*
X119236Y145631*
Y144850*
X119123Y144381*
X119009Y144069*
X118782Y143756*
X118555Y143600*
X118100*
X117873Y143756*
X117645Y144069*
X117532Y144381*
X117418Y144850*
Y145631*
X117532Y146100*
X117645Y146413*
X117645D02*
X117873Y146725D01*
X118100Y146881*
X118555*
X116282Y146100D02*
Y146256D01*
X116168Y146569*
X116055Y146725*
X115827Y146881*
X115373*
X115145Y146725*
X115032Y146569*
X114918Y146256*
Y145944*
X115032Y145631*
X115259Y145163*
X115259D02*
X116395Y143600D01*
X114805*
X123795Y135700D02*
X123909Y136013D01*
X123909D02*
X124136Y136325D01*
X124364Y136481*
X124818*
X125045Y136325*
X125273Y136013*
X125273D02*
X125386Y135700D01*
X125500Y135231*
Y134450*
X125386Y133981*
X125273Y133669*
X125045Y133356*
X124818Y133200*
X124364*
X124136Y133356*
X123909Y133669*
X123795Y133981*
Y134450*
X124364D02*
X123795D01*
X122773Y136481D02*
Y133200D01*
Y136481D02*
X121750D01*
X121409Y136325*
X121295Y136169*
X121182Y135856*
Y135388*
X121182D02*
X121295Y135075D01*
X121409Y134919*
X121750Y134763*
X121750D02*
X122773D01*
X120159Y136481D02*
Y133200D01*
X118455Y136481D02*
X118682Y136325D01*
X118909Y136013*
X118909D02*
X119023Y135700D01*
X119136Y135231*
Y134450*
X119023Y133981*
X118909Y133669*
X118682Y133356*
X118455Y133200*
X118000*
X117773Y133356*
X117545Y133669*
X117432Y133981*
X117318Y134450*
Y135231*
X117432Y135700*
X117545Y136013*
X117545D02*
X117773Y136325D01*
X118000Y136481*
X118455*
X116068D02*
X114818D01*
X115500Y135231*
X115159*
X114932Y135075*
X114818Y134919*
X114705Y134450*
Y134138*
X114705D02*
X114818Y133669D01*
X115045Y133356*
X115386Y133200*
X115727*
X116068Y133356*
X116182Y133513*
X116182D02*
X116295Y133825D01*
X187500Y186681D02*
Y183400D01*
Y186681D02*
X186477D01*
X186136Y186525*
X186023Y186369*
X185909Y186056*
Y185744*
X186023Y185431*
X186136Y185275*
X186477Y185119*
X187500*
X186705D02*
X185909Y183400D01*
X184886Y186681D02*
Y183400D01*
Y186681D02*
X183409D01*
X184886Y185119D02*
X183977D01*
X184886Y183400D02*
X183409D01*
X180795Y186213D02*
X181023Y186525D01*
X181364Y186681*
X181818*
X182159Y186525*
X182386Y186213*
X182386D02*
Y185900D01*
X182273Y185588*
X182273D02*
X182159Y185431D01*
X181932Y185275*
X181250Y184963*
X181250D02*
X181023Y184806D01*
X180909Y184650*
X180795Y184338*
X180795D02*
Y183869D01*
X181023Y183556*
X181364Y183400*
X181818*
X182159Y183556*
X182386Y183869*
X179773Y186681D02*
Y183400D01*
Y186681D02*
X178295D01*
X179773Y185119D02*
X178864D01*
X179773Y183400D02*
X178295D01*
X176477Y186681D02*
Y183400D01*
X177273Y186681D02*
X175682D01*
X186305Y176681D02*
Y173400D01*
X187100Y176681D02*
X185509D01*
X184486D02*
Y173400D01*
Y176681D02*
X183009D01*
X184486Y175119D02*
X183577D01*
X184486Y173400D02*
X183009D01*
X180395Y176213D02*
X180623Y176525D01*
X180964Y176681*
X181418*
X181759Y176525*
X181986Y176213*
X181986D02*
Y175900D01*
X181873Y175588*
X181873D02*
X181759Y175431D01*
X181532Y175275*
X180850Y174963*
X180850D02*
X180623Y174806D01*
X180509Y174650*
X180395Y174338*
X180395D02*
Y173869D01*
X180623Y173556*
X180964Y173400*
X181418*
X181759Y173556*
X181986Y173869*
X178577Y176681D02*
Y173400D01*
X179373Y176681D02*
X177782D01*
X186195Y168100D02*
X186309Y168413D01*
X186309D02*
X186536Y168725D01*
X186764Y168881*
X187218*
X187445Y168725*
X187673Y168413*
X187673D02*
X187786Y168100D01*
X187900Y167631*
Y166850*
X187786Y166381*
X187673Y166069*
X187445Y165756*
X187218Y165600*
X186764*
X186536Y165756*
X186309Y166069*
X186195Y166381*
Y166850*
X186764D02*
X186195D01*
X185173Y168881D02*
Y165600D01*
Y168881D02*
X184150D01*
X183809Y168725*
X183695Y168569*
X183582Y168256*
Y167788*
X183582D02*
X183695Y167475D01*
X183809Y167319*
X184150Y167163*
X184150D02*
X185173D01*
X182559Y168881D02*
Y165600D01*
X180855Y168881D02*
X181082Y168725D01*
X181309Y168413*
X181309D02*
X181423Y168100D01*
X181536Y167631*
Y166850*
X181423Y166381*
X181309Y166069*
X181082Y165756*
X180855Y165600*
X180400*
X180173Y165756*
X179945Y166069*
X179832Y166381*
X179718Y166850*
Y167631*
X179832Y168100*
X179945Y168413*
X179945D02*
X180173Y168725D01*
X180400Y168881*
X180855*
X177559D02*
X178695Y166694D01*
X176991*
X177559Y168881D02*
Y165600D01*
X187600Y156281D02*
Y153938D01*
X187600D02*
X187486Y153469D01*
X187259Y153156*
X186918Y153000*
X186691*
X186350Y153156*
X186123Y153469*
X186009Y153938*
X186009D02*
Y156281D01*
X183282Y155500D02*
X183395Y155813D01*
X183395D02*
X183623Y156125D01*
X183850Y156281*
X184305*
X184532Y156125*
X184759Y155813*
X184759D02*
X184873Y155500D01*
X184986Y155031*
Y154250*
X184873Y153781*
X184759Y153469*
X184532Y153156*
X184305Y153000*
X183850*
X183623Y153156*
X183395Y153469*
X183282Y153781*
X181350Y156281D02*
X182259Y153000D01*
X181350Y156281D02*
X180441Y153000D01*
X181918Y154094D02*
X180782D01*
X179418Y155656D02*
X179191Y155813D01*
X179191D02*
X178850Y156281D01*
Y153000*
X176123Y155500D02*
X176236Y155813D01*
X176236D02*
X176464Y156125D01*
X176691Y156281*
X177145*
X177373Y156125*
X177600Y155813*
X177600D02*
X177714Y155500D01*
X177827Y155031*
Y154250*
X177714Y153781*
X177600Y153469*
X177373Y153156*
X177145Y153000*
X176691*
X176464Y153156*
X176236Y153469*
X176123Y153781*
X175100Y156281D02*
Y153000D01*
X173736*
X172714Y156281D02*
Y153000D01*
X171123Y156281D02*
X172714Y154094D01*
X172145Y154875D02*
X171123Y153000D01*
X187600Y146881D02*
Y144538D01*
X187600D02*
X187486Y144069D01*
X187259Y143756*
X186918Y143600*
X186691*
X186350Y143756*
X186123Y144069*
X186009Y144538*
X186009D02*
Y146881D01*
X183282Y146100D02*
X183395Y146413D01*
X183395D02*
X183623Y146725D01*
X183850Y146881*
X184305*
X184532Y146725*
X184759Y146413*
X184759D02*
X184873Y146100D01*
X184986Y145631*
Y144850*
X184873Y144381*
X184759Y144069*
X184532Y143756*
X184305Y143600*
X183850*
X183623Y143756*
X183395Y144069*
X183282Y144381*
X181350Y146881D02*
X182259Y143600D01*
X181350Y146881D02*
X180441Y143600D01*
X181918Y144694D02*
X180782D01*
X179418Y146256D02*
X179191Y146413D01*
X179191D02*
X178850Y146881D01*
Y143600*
X177032Y146881D02*
Y143600D01*
X177827Y146881D02*
X176236D01*
X175214D02*
X173623Y143600D01*
Y146881D02*
X175214Y143600D01*
X172600Y146881D02*
Y143600D01*
Y146881D02*
X171805D01*
X171464Y146725*
X171236Y146413*
X171236D02*
X171123Y146100D01*
X171009Y145631*
Y144850*
X171123Y144381*
X171236Y144069*
X171464Y143756*
X171805Y143600*
X172600*
X167941Y147506D02*
X169986Y142506D01*
X165327Y146413D02*
X165555Y146725D01*
X165895Y146881*
X166350*
X166691Y146725*
X166918Y146413*
X166918D02*
Y146100D01*
X166805Y145788*
X166805D02*
X166691Y145631D01*
X166464Y145475*
X165782Y145163*
X165782D02*
X165555Y145006D01*
X165441Y144850*
X165327Y144538*
X165327D02*
Y144069D01*
X165555Y143756*
X165895Y143600*
X166350*
X166691Y143756*
X166918Y144069*
X164305Y146881D02*
Y143600D01*
X163282Y146881D02*
Y143600D01*
Y146881D02*
X162373Y143600D01*
X161464Y146881D02*
X162373Y143600D01*
X161464Y146881D02*
Y143600D01*
X159759Y146881D02*
X159986Y146725D01*
X160214Y146413*
X160214D02*
X160327Y146100D01*
X160441Y145631*
Y144850*
X160327Y144381*
X160214Y144069*
X159986Y143756*
X159759Y143600*
X159305*
X159077Y143756*
X158850Y144069*
X158736Y144381*
X158623Y144850*
Y145631*
X158736Y146100*
X158850Y146413*
X158850D02*
X159077Y146725D01*
X159305Y146881*
X159759*
X187300Y136281D02*
Y133938D01*
X187300D02*
X187186Y133469D01*
X186959Y133156*
X186618Y133000*
X186391*
X186050Y133156*
X185823Y133469*
X185709Y133938*
X185709D02*
Y136281D01*
X182982Y135500D02*
X183095Y135813D01*
X183095D02*
X183323Y136125D01*
X183550Y136281*
X184005*
X184232Y136125*
X184459Y135813*
X184459D02*
X184573Y135500D01*
X184686Y135031*
Y134250*
X184573Y133781*
X184459Y133469*
X184232Y133156*
X184005Y133000*
X183550*
X183323Y133156*
X183095Y133469*
X182982Y133781*
X181050Y136281D02*
X181959Y133000D01*
X181050Y136281D02*
X180141Y133000D01*
X181618Y134094D02*
X180482D01*
X179118Y135656D02*
X178891Y135813D01*
X178891D02*
X178550Y136281D01*
Y133000*
X177527Y136281D02*
Y133000D01*
Y136281D02*
X176505D01*
X176164Y136125*
X176050Y135969*
X175936Y135656*
Y135344*
X176050Y135031*
X176164Y134875*
X176505Y134719*
X177527*
X176732D02*
X175936Y133000D01*
X174914Y136281D02*
X173323Y133000D01*
Y136281D02*
X174914Y133000D01*
X172300Y136281D02*
Y133000D01*
Y136281D02*
X171505D01*
X171164Y136125*
X170936Y135813*
X170936D02*
X170823Y135500D01*
X170709Y135031*
Y134250*
X170823Y133781*
X170936Y133469*
X171164Y133156*
X171505Y133000*
X172300*
X167641Y136906D02*
X169686Y131906D01*
X165027Y135813D02*
X165255Y136125D01*
X165595Y136281*
X166050*
X166391Y136125*
X166618Y135813*
X166618D02*
Y135500D01*
X166505Y135188*
X166505D02*
X166391Y135031D01*
X166164Y134875*
X165482Y134563*
X165482D02*
X165255Y134406D01*
X165141Y134250*
X165027Y133938*
X165027D02*
Y133469D01*
X165255Y133156*
X165595Y133000*
X166050*
X166391Y133156*
X166618Y133469*
X163323Y136281D02*
X163550Y136125D01*
X163777Y135813*
X163777D02*
X163891Y135500D01*
X164005Y135031*
Y134250*
X163891Y133781*
X163777Y133469*
X163550Y133156*
X163323Y133000*
X162868*
X162641Y133156*
X162414Y133469*
X162300Y133781*
X162186Y134250*
Y135031*
X162300Y135500*
X162414Y135813*
X162414D02*
X162641Y136125D01*
X162868Y136281*
X163323*
X161164D02*
Y133000D01*
Y136281D02*
X160255Y133000D01*
X159345Y136281D02*
X160255Y133000D01*
X159345Y136281D02*
Y133000D01*
X158323Y136281D02*
Y133000D01*
G54D43*
X199639Y110600D02*
G75*
G03X199639I-10039J0D01*
G54D44*
G01X199049Y110994D02*
X188450Y111059D01*
X180575Y113422D02*
G03X188451Y111059I8198J13019D01*
G01X198655Y107057D02*
X188864Y107316D01*
X188855Y107315D02*
G03X182014Y104439I1764J-13772D01*
G01X190714Y115718D02*
G03X190714I-1114J0D01*
G01X189600Y114143D02*
X191175Y114537D01*
X194204Y116686*
X194991Y115899D02*
G03X194204Y116686I-394J393D01*
G01X194991Y115899D02*
X191962Y113750D01*
X191569Y112175*
Y111387*
X189600Y114143D02*
X188025Y114537D01*
X184876Y116506*
G03X184088Y115718I-394J-394*
G01X187238Y113750*
X187631Y112175*
Y111387*
X196293Y110994D02*
Y117293D01*
X182907*
Y112175*
X193143Y113750D02*
X195112D01*
Y112569D02*
G03Y113750I-0J590D01*
G01Y112569D02*
X192356D01*
X186057Y113750D02*
X184088D01*
G03Y112569I0J-591*
G01X186844*
X196293Y107057D02*
Y103907D01*
X182907Y105088D02*
Y103120D01*
X191569Y107057D02*
X193065Y101781D01*
X191883Y101387*
X189600Y106269*
X187631Y107057D02*
X186135Y101781D01*
X187317Y101387*
X189600Y106269*
X193143Y106663D02*
X195112Y103120D01*
X194324Y102332*
X192750Y105482*
X185663Y105876D02*
X184088Y103120D01*
X184876Y102332*
X186450Y105482*
G74*
X0Y0D02*
M02*
