*
*
G04 PADS 9.3.1 Build Number: 461647 generated Gerber (RS-274-X) file*
G04 PC Version=2.1*
*
%IN "ecg_layout.pcb"*%
*
%MOIN*%
*
%FSLAX35Y35*%
*
*
*
*
G04 PC Standard Apertures*
*
*
G04 Thermal Relief Aperture macro.*
%AMTER*
1,1,$1,0,0*
1,0,$1-$2,0,0*
21,0,$3,$4,0,0,45*
21,0,$3,$4,0,0,135*
%
*
*
G04 Annular Aperture macro.*
%AMANN*
1,1,$1,0,0*
1,0,$2,0,0*
%
*
*
G04 Odd Aperture macro.*
%AMODD*
1,1,$1,0,0*
1,0,$1-0.005,0,0*
%
*
*
G04 PC Custom Aperture Macros*
*
*
*
*
*
*
G04 PC Aperture Table*
*
%ADD012C,0.06*%
%ADD015C,0.012*%
%ADD016C,0.04*%
%ADD017C,0.01*%
%ADD023C,0.001*%
%ADD025R,0.06X0.012*%
%ADD026O,0.06X0.012*%
%ADD027O,0.012X0.06*%
%ADD028R,0.035X0.02*%
%ADD029R,0.02X0.035*%
%ADD030R,0.11811X0.09843*%
%ADD042C,0.035*%
*
*
*
*
G04 PC Circuitry*
G04 Layer Name ecg_layout.pcb - circuitry*
%LPD*%
*
*
G04 PC Custom Flashes*
G04 Layer Name ecg_layout.pcb - flashes*
%LPD*%
*
*
G04 PC Circuitry*
G04 Layer Name ecg_layout.pcb - circuitry*
%LPD*%
*
G54D12*
G01X107400Y228100D03*
Y218100D03*
Y208100D03*
Y198100D03*
Y188100D03*
Y178100D03*
Y168100D03*
Y158100D03*
X192400D03*
Y168100D03*
Y178100D03*
Y188100D03*
Y198100D03*
Y208100D03*
Y218100D03*
Y228100D03*
X131800Y139622D03*
Y116000D03*
X175600Y139622D03*
Y116000D03*
G54D15*
X127400Y157900D02*
X125100D01*
X122400Y160600*
Y166300*
X127400Y157900D02*
X147200D01*
X155600Y166300*
X166200*
X180000Y157500D02*
X169700D01*
X166200Y161000*
Y166300*
X180000Y157500D02*
X182300D01*
X183000Y158200*
Y171850*
X177700Y177150*
Y177900*
X192400Y158100D02*
X185700Y164800D01*
Y166300*
X122400D02*
Y167050D01*
X116350Y173100*
X106400*
X103200Y176300*
Y223900*
X107400Y228100*
X141300Y166300D02*
X144500D01*
X145700Y166400*
X166800Y178600D02*
X161100D01*
X172100Y183500D02*
Y177900D01*
X169900*
X169800Y178000*
Y178600*
X169800*
X166800*
X161800Y209900D02*
Y212600D01*
X163450Y227300D02*
X165950Y224800D01*
X166700*
X172900D02*
X180250D01*
X183550Y228100*
X184300*
X131150Y225830D02*
X135850D01*
X137320Y227300*
X163450*
X131150Y225830D02*
X121890D01*
X119620Y228100*
X107400*
X131150Y228780D02*
X135020D01*
X136640Y230400*
X140500*
X146800*
X166700D02*
X172900D01*
X146800D02*
X160900D01*
X166700*
X184300Y228100D02*
X192400D01*
G54D16*
X142600Y177600D03*
G54D17*
X117627Y110882D02*
X118611D01*
X136500Y128771*
Y154500*
X161427Y110882D02*
X162411D01*
X180000Y128471*
Y154100*
X117627Y149071D02*
X124700D01*
X124800Y149171*
Y152650*
X126650Y154500*
X127400*
X161427Y149071D02*
X168500D01*
X168900Y149471*
Y152150*
X171050Y154300*
X171800*
X127400Y160100D02*
Y162500D01*
X128000Y163100*
Y166300*
X136500Y160100D02*
Y162400D01*
X135700Y163200*
Y166300*
X171800Y159900D02*
Y166300D01*
X180000Y159700D02*
Y166950D01*
X180100Y167050*
X128000Y166300D02*
Y195200D01*
X139500Y206700*
X146100*
X146355Y206955*
X151050*
X135700Y166300D02*
Y200600D01*
X140085Y204985*
X151050*
X171800Y166300D02*
X169700D01*
X169000Y167000*
Y167900*
X166400Y170500*
X159900*
X138900Y191500*
Y201500*
X140415Y203015*
X151050*
X180100Y167050D02*
X175050Y172100D01*
X160600*
X140500Y192200*
Y200800*
X141100Y201400*
X143400*
X180100Y166300D02*
Y167050D01*
X185700Y166300D02*
Y172000D01*
X182500Y175200*
Y185500*
X176500Y191500*
X176550Y191550*
Y197105*
X192400Y168100D02*
X184500Y176000D01*
Y199215*
X180700Y203015*
X176550*
X166800Y184200D02*
Y186300D01*
X166755Y186345*
Y191250*
X177700Y177900D02*
Y183500D01*
Y184250*
X174200Y187750*
Y193600*
X172400Y195400*
Y199075*
X176550*
X176550*
X192400Y178100D02*
X196500Y182200D01*
Y189800*
X193200Y193100*
X191600*
X187700Y197000*
Y200600*
X181345Y206955*
X176550*
X107400Y188100D02*
X135900Y216600D01*
X143400Y193700D02*
X144150D01*
X146400Y195950*
Y196605*
X146900Y197105*
X151050*
X192400Y188100D02*
X186100Y194400D01*
Y199900*
X181015Y204985*
X176550*
X151050Y201045D02*
X146455D01*
X146100Y201400*
X143400*
X151050Y199075D02*
X146725D01*
X146500Y199300*
X143400*
X176550Y201045D02*
X165955D01*
X150400Y216600*
X135900*
X192400Y198100D02*
Y202200D01*
X185675Y208925*
X176550*
X143400Y208900D02*
X146600D01*
X146625Y208925*
X151050*
Y210895D02*
X148850D01*
X147145Y212600*
X146050*
X144150Y214500*
X143400*
X161800Y212600D02*
X164785D01*
Y216750*
X161800Y212600D02*
X158875D01*
Y216750*
X166700Y209800D02*
X168325Y212200D01*
X168725Y212600*
Y216750*
X170000Y205000D02*
Y208495D01*
X172400Y210895*
X176550*
X140500Y224800D02*
X146800D01*
X156905Y216750D02*
Y218950D01*
X155000Y220855*
Y222400*
X152600Y224800*
X146800*
X166700D02*
X172900D01*
X166755Y216750D02*
Y220900D01*
X168355Y222500*
X184300*
X162815Y216750D02*
Y221665D01*
X165950Y224800*
X160845Y216750D02*
Y224745D01*
X160900Y224800*
X170695Y216750D02*
X172750D01*
X175580Y216770*
X99900Y233100D02*
X199900D01*
Y99800*
X99900*
Y233100*
G54D23*
G54D25*
X151050Y197105D03*
G54D26*
Y199075D03*
Y201045D03*
Y203015D03*
Y204985D03*
Y206955D03*
Y208925D03*
Y210895D03*
X176550D03*
Y208925D03*
Y206955D03*
Y204985D03*
Y203015D03*
Y201045D03*
Y199075D03*
Y197105D03*
G54D27*
X156905Y216750D03*
X158875D03*
X160845D03*
X162815D03*
X164785D03*
X166755D03*
X168725D03*
X170695D03*
Y191250D03*
X168725D03*
X166755D03*
X164785D03*
X162815D03*
X160845D03*
X158875D03*
X156905D03*
G54D28*
X143400Y199300D03*
Y193700D03*
Y214500D03*
Y208900D03*
X172900Y224800D03*
Y230400D03*
X160900Y224800D03*
Y230400D03*
X166800Y184200D03*
Y178600D03*
X166700Y224800D03*
Y230400D03*
X146800Y224800D03*
Y230400D03*
X140500Y224800D03*
Y230400D03*
X171800Y154300D03*
Y159900D03*
X180000Y154100D03*
Y159700D03*
X127400Y154500D03*
Y160100D03*
X136500Y154500D03*
Y160100D03*
X184300Y222500D03*
Y228100D03*
G54D29*
X177700Y183500D03*
X172100D03*
X177700Y177900D03*
X172100D03*
X171800Y166300D03*
X166200D03*
X185700D03*
X180100D03*
X128000D03*
X122400D03*
X141300D03*
X135700D03*
G54D30*
X117627Y110882D03*
Y149071D03*
X145973Y121512D03*
Y149071D03*
X161427Y110882D03*
Y149071D03*
X189773Y121512D03*
Y149071D03*
G54D42*
X145700Y166400D03*
X161100Y178600D03*
X166700Y209800D03*
X161800Y209900D03*
X170000Y205000D03*
X175580Y216770D03*
X131150Y228780D03*
X0Y0D02*
M02*
