%
T1C.02F197S550
X014570Y016640
X016110Y017860
X017558Y021677
X017000Y020500
X016670Y020980
X016180Y020990
X013115Y022878
T2C.025F197S550
X014260Y017760
T3C.035F197S550
X013180Y013962
X013180Y011600
X017560Y013962
X017560Y011600
T4C.044F139S550
X010740Y015810
X019240Y015810
X019240Y016810
X019240Y017810
X019240Y018810
X010740Y018810
X010740Y017810
X010740Y016810
X010740Y019810
X010740Y020810
X019240Y019810
X019240Y020810
X019240Y021810
X019240Y022810
X010740Y021810
X010740Y022810
M30
