*
*
G04 PADS 9.3.1 Build Number: 461647 generated Gerber (RS-274-X) file*
G04 PC Version=2.1*
*
%IN "ecg_layout.pcb"*%
*
%MOIN*%
*
%FSLAX35Y35*%
*
*
*
*
G04 PC Standard Apertures*
*
*
G04 Thermal Relief Aperture macro.*
%AMTER*
1,1,$1,0,0*
1,0,$1-$2,0,0*
21,0,$3,$4,0,0,45*
21,0,$3,$4,0,0,135*
%
*
*
G04 Annular Aperture macro.*
%AMANN*
1,1,$1,0,0*
1,0,$2,0,0*
%
*
*
G04 Odd Aperture macro.*
%AMODD*
1,1,$1,0,0*
1,0,$1-0.005,0,0*
%
*
*
G04 PC Custom Aperture Macros*
*
*
*
*
*
*
G04 PC Aperture Table*
*
%ADD012C,0.06*%
%ADD016C,0.04*%
%ADD017C,0.01*%
%ADD023C,0.001*%
%ADD024C,0.015*%
%ADD042C,0.035*%
*
*
*
*
G04 PC Circuitry*
G04 Layer Name ecg_layout.pcb - circuitry*
%LPD*%
*
*
G04 PC Custom Flashes*
G04 Layer Name ecg_layout.pcb - flashes*
%LPD*%
*
*
G04 PC Circuitry*
G04 Layer Name ecg_layout.pcb - circuitry*
%LPD*%
*
G54D12*
G01X107400Y228100D03*
Y218100D03*
Y208100D03*
Y198100D03*
Y188100D03*
Y178100D03*
Y168100D03*
Y158100D03*
X192400D03*
Y168100D03*
Y178100D03*
Y188100D03*
Y198100D03*
Y208100D03*
Y218100D03*
Y228100D03*
X131800Y139622D03*
Y116000D03*
X175600Y139622D03*
Y116000D03*
G54D16*
X142600Y177600D03*
G54D17*
X107400Y168100D02*
X131070Y191770D01*
X152720*
X171600Y210650*
Y212790*
X175580Y216770*
X107400Y178100D02*
X123800Y193640D01*
X150460*
X166700Y209800*
X142600Y177600D02*
X170000Y205000D01*
X196500Y158100D02*
G75*
G03X196500I-4100J0D01*
G01Y168100D02*
G03X196500I-4100J0D01*
G01Y178100D02*
G03X196500I-4100J0D01*
G01Y188100D02*
G03X196500I-4100J0D01*
G01Y198100D02*
G03X196500I-4100J0D01*
G01Y208100D02*
G03X196500I-4100J0D01*
G01Y218100D02*
G03X196500I-4100J0D01*
G01X179700Y116000D02*
G03X179700I-4100J0D01*
G01Y139622D02*
G03X179700I-4100J0D01*
G01X163950Y178600D02*
G03X163950I-2850J0D01*
G01X148550Y166400D02*
G03X148550I-2850J0D01*
G01X111500Y188100D02*
G03X111500I-4100J0D01*
G01Y198100D02*
G03X111500I-4100J0D01*
G01Y208100D02*
G03X111500I-4100J0D01*
G01Y218100D02*
G03X111500I-4100J0D01*
G01X135900Y116000D02*
G03X135900I-4100J0D01*
G01Y139622D02*
G03X135900I-4100J0D01*
G01X111500Y158100D02*
G03X111500I-4100J0D01*
G01X197600Y102400D02*
Y230800D01*
G03X197100Y231300I-500J0*
G01X196124*
G03X195719Y230507I0J-500*
G01X189081D02*
G03X195719I3319J-2407D01*
G01X189081D02*
G03X188676Y231300I-405J293D01*
G01X133822*
G03X133424Y230499I0J-500*
G01X128876D02*
G03X133424I2274J-1719D01*
G01X128876D02*
G03X128478Y231300I-398J301D01*
G01X111124*
G03X110719Y230507I0J-500*
G01X104081D02*
G03X110719I3319J-2407D01*
G01X104081D02*
G03X103676Y231300I-405J293D01*
G01X102300*
G03X101800Y230800I0J-500*
G01Y102400*
G03X102300Y101900I500J0*
G01X197100*
G03X197600Y102400I0J500*
G01X196500Y158100D02*
G03X196500I-4100J0D01*
G01Y168100D02*
G03X196500I-4100J0D01*
G01Y178100D02*
G03X196500I-4100J0D01*
G01Y188100D02*
G03X196500I-4100J0D01*
G01Y198100D02*
G03X196500I-4100J0D01*
G01Y208100D02*
G03X196500I-4100J0D01*
G01Y218100D02*
G03X196500I-4100J0D01*
G01X179700Y116000D02*
G03X179700I-4100J0D01*
G01Y139622D02*
G03X179700I-4100J0D01*
G01X163950Y178600D02*
G03X163950I-2850J0D01*
G01X148550Y166400D02*
G03X148550I-2850J0D01*
G01X175273Y213937D02*
G03X172747Y216463I307J2833D01*
G01X175273Y213937D02*
G03X174866Y213793I-54J-498D01*
G01X173346Y212274*
G03X173200Y211920I354J-354*
G01Y210650*
X172731Y209519D02*
G03X173200Y210650I-1131J1131D01*
G01X172731Y209519D02*
X171413Y208200D01*
G03X171503Y207422I353J-354*
G01X169693Y202167D02*
G03X171503Y207422I307J2833D01*
G01X169693Y202167D02*
G03X169286Y202023I-54J-498D01*
G01X145799Y178536*
G03X145659Y178102I354J-353*
G01X143102Y180659D02*
G03X145659Y178102I-502J-3059D01*
G01X143102Y180659D02*
G03X143536Y180799I81J494D01*
G01X152054Y189316*
G03X151700Y190170I-354J354*
G01X131940*
G03X131586Y190024I-0J-500*
G01X111425Y169863*
G03X111303Y169356I354J-354*
G01X108656Y172003D02*
G03X111303Y169356I-1256J-3903D01*
G01X108656Y172003D02*
G03X109163Y172125I153J476D01*
G01X128224Y191186*
G03X127870Y192040I-354J354*
G01X124637*
G03X124293Y191903I-0J-500*
G01X111471Y179754*
G03X111335Y179250I344J-363*
G01X108760Y181968D02*
G03X111335Y179250I-1360J-3868D01*
G01X108760Y181968D02*
G03X109270Y182076I166J471D01*
G01X122699Y194801*
X123800Y195240D02*
G03X122699Y194801I0J-1600D01*
G01X123800Y195240D02*
X149593D01*
G03X149946Y195386I0J500*
G01X161011Y206396*
G03X160829Y207221I-353J355*
G01X163924Y211800D02*
G03X160829Y207221I-2124J-1900D01*
G01X163924Y211800D02*
G03X164655Y211785I373J334D01*
G01X169082Y211365D02*
G03X164655Y211785I-2382J-1565D01*
G01X169082Y211365D02*
G03X170000Y211639I418J274D01*
G01Y212790*
X170469Y213921D02*
G03X170000Y212790I1131J-1131D01*
G01X170469Y213921D02*
X172603Y216056D01*
G03X172747Y216463I-354J353*
G01X111500Y188100D02*
G03X111500I-4100J0D01*
G01Y198100D02*
G03X111500I-4100J0D01*
G01Y208100D02*
G03X111500I-4100J0D01*
G01Y218100D02*
G03X111500I-4100J0D01*
G01X135900Y116000D02*
G03X135900I-4100J0D01*
G01Y139622D02*
G03X135900I-4100J0D01*
G01X111500Y158100D02*
G03X111500I-4100J0D01*
G01X195667Y230599D02*
X197600D01*
X196175Y229699D02*
X197600D01*
X196440Y228799D02*
X197600D01*
X196495Y227899D02*
X197600D01*
X196349Y226999D02*
X197600D01*
X195978Y226099D02*
X197600D01*
X195297Y225199D02*
X197600D01*
X193936Y224299D02*
X197600D01*
X101800Y223399D02*
X197600D01*
X101800Y222499D02*
X197600D01*
X194538Y221599D02*
X197600D01*
X195571Y220699D02*
X197600D01*
X196132Y219799D02*
X197600D01*
X196421Y218899D02*
X197600D01*
X196499Y217999D02*
X197600D01*
X196376Y217099D02*
X197600D01*
X196033Y216199D02*
X197600D01*
X195394Y215299D02*
X197600D01*
X194164Y214399D02*
X197600D01*
X174571Y213499D02*
X197600D01*
X173671Y212599D02*
X197600D01*
X194365Y211699D02*
X197600D01*
X195487Y210799D02*
X197600D01*
X196084Y209899D02*
X197600D01*
X196400Y208999D02*
X197600D01*
X196500Y208099D02*
X197600D01*
X196400Y207199D02*
X197600D01*
X196083Y206299D02*
X197600D01*
X195484Y205399D02*
X197600D01*
X194360Y204499D02*
X197600D01*
X172482Y203599D02*
X197600D01*
X171681Y202699D02*
X197600D01*
X194169Y201799D02*
X197600D01*
X195396Y200899D02*
X197600D01*
X196034Y199999D02*
X197600D01*
X196377Y199099D02*
X197600D01*
X196499Y198199D02*
X197600D01*
X196421Y197299D02*
X197600D01*
X196130Y196399D02*
X197600D01*
X195569Y195499D02*
X197600D01*
X194533Y194599D02*
X197600D01*
X160961Y193699D02*
X197600D01*
X160061Y192799D02*
X197600D01*
X193943Y191899D02*
X197600D01*
X195300Y190999D02*
X197600D01*
X195980Y190099D02*
X197600D01*
X196350Y189199D02*
X197600D01*
X196495Y188299D02*
X197600D01*
X196440Y187399D02*
X197600D01*
X196174Y186499D02*
X197600D01*
X195649Y185599D02*
X197600D01*
X194689Y184699D02*
X197600D01*
X151061Y183799D02*
X197600D01*
X150161Y182899D02*
X197600D01*
X193669Y181999D02*
X197600D01*
X195196Y181099D02*
X197600D01*
X195922Y180199D02*
X197600D01*
X196321Y179299D02*
X197600D01*
X196489Y178399D02*
X197600D01*
X196456Y177499D02*
X197600D01*
X196215Y176599D02*
X197600D01*
X195723Y175699D02*
X197600D01*
X194831Y174799D02*
X197600D01*
X115461Y173899D02*
X197600D01*
X114561Y172999D02*
X197600D01*
X193306Y172099D02*
X197600D01*
X195085Y171199D02*
X197600D01*
X195861Y170299D02*
X197600D01*
X196289Y169399D02*
X197600D01*
X196481Y168499D02*
X197600D01*
X196469Y167599D02*
X197600D01*
X196253Y166699D02*
X197600D01*
X195793Y165799D02*
X197600D01*
X194962Y164899D02*
X197600D01*
X147235Y163999D02*
X197600D01*
X101800Y163099D02*
X197600D01*
X192505Y162199D02*
X197600D01*
X194965Y161299D02*
X197600D01*
X195795Y160399D02*
X197600D01*
X196254Y159499D02*
X197600D01*
X196470Y158599D02*
X197600D01*
X196480Y157699D02*
X197600D01*
X196288Y156799D02*
X197600D01*
X195859Y155899D02*
X197600D01*
X195082Y154999D02*
X197600D01*
X193294Y154099D02*
X197600D01*
X101800Y153199D02*
X197600D01*
X101800Y152299D02*
X197600D01*
X101800Y151399D02*
X197600D01*
X101800Y150499D02*
X197600D01*
X101800Y149599D02*
X197600D01*
X101800Y148699D02*
X197600D01*
X101800Y147799D02*
X197600D01*
X101800Y146899D02*
X197600D01*
X101800Y145999D02*
X197600D01*
X101800Y145099D02*
X197600D01*
X101800Y144199D02*
X197600D01*
X177415Y143299D02*
X197600D01*
X178617Y142399D02*
X197600D01*
X179245Y141499D02*
X197600D01*
X179582Y140599D02*
X197600D01*
X179699Y139699D02*
X197600D01*
X179616Y138799D02*
X197600D01*
X179320Y137899D02*
X197600D01*
X178751Y136999D02*
X197600D01*
X177697Y136099D02*
X197600D01*
X101800Y135199D02*
X197600D01*
X101800Y134299D02*
X197600D01*
X101800Y133399D02*
X197600D01*
X101800Y132499D02*
X197600D01*
X101800Y131599D02*
X197600D01*
X101800Y130699D02*
X197600D01*
X101800Y129799D02*
X197600D01*
X101800Y128899D02*
X197600D01*
X101800Y127999D02*
X197600D01*
X101800Y127099D02*
X197600D01*
X101800Y126199D02*
X197600D01*
X101800Y125299D02*
X197600D01*
X101800Y124399D02*
X197600D01*
X101800Y123499D02*
X197600D01*
X101800Y122599D02*
X197600D01*
X101800Y121699D02*
X197600D01*
X101800Y120799D02*
X197600D01*
X176869Y119899D02*
X197600D01*
X178396Y118999D02*
X197600D01*
X179122Y118099D02*
X197600D01*
X179521Y117199D02*
X197600D01*
X179689Y116299D02*
X197600D01*
X179656Y115399D02*
X197600D01*
X179415Y114499D02*
X197600D01*
X178923Y113599D02*
X197600D01*
X178031Y112699D02*
X197600D01*
X101800Y111799D02*
X197600D01*
X101800Y110899D02*
X197600D01*
X101800Y109999D02*
X197600D01*
X101800Y109099D02*
X197600D01*
X101800Y108199D02*
X197600D01*
X101800Y107299D02*
X197600D01*
X101800Y106399D02*
X197600D01*
X101800Y105499D02*
X197600D01*
X101800Y104599D02*
X197600D01*
X101800Y103699D02*
X197600D01*
X101800Y102799D02*
X197600D01*
X107505Y162199D02*
X192295D01*
X108294Y154099D02*
X191506D01*
X113661Y172099D02*
X191494D01*
X149261Y181999D02*
X191131D01*
X108936Y224299D02*
X190864D01*
X159161Y191899D02*
X190857D01*
X177161Y214399D02*
X190636D01*
X169061Y201799D02*
X190631D01*
X172806Y204499D02*
X190440D01*
X173200Y211699D02*
X190435D01*
X161861Y194599D02*
X190267D01*
X109538Y221599D02*
X190262D01*
X151961Y184699D02*
X190111D01*
X143928Y174799D02*
X189969D01*
X148123Y164899D02*
X189838D01*
X109965Y161299D02*
X189835D01*
X110082Y154999D02*
X189718D01*
X112761Y171199D02*
X189715D01*
X162471Y181099D02*
X189604D01*
X110297Y225199D02*
X189503D01*
X158261Y190999D02*
X189500D01*
X178021Y215299D02*
X189406D01*
X168161Y200899D02*
X189404D01*
X172822Y205399D02*
X189316D01*
X173200Y210799D02*
X189313D01*
X162761Y195499D02*
X189231D01*
X110571Y220699D02*
X189229D01*
X152861Y185599D02*
X189151D01*
X133365Y230599D02*
X189133D01*
X145048Y175699D02*
X189077D01*
X148486Y165799D02*
X189007D01*
X110795Y160399D02*
X189005D01*
X110859Y155899D02*
X188941D01*
X111861Y170299D02*
X188939D01*
X163459Y180199D02*
X188878D01*
X132116Y226099D02*
X188822D01*
X157361Y190099D02*
X188820D01*
X178372Y216199D02*
X188767D01*
X167261Y199999D02*
X188766D01*
X172537Y206299D02*
X188717D01*
X173013Y209899D02*
X188716D01*
X163661Y196399D02*
X188670D01*
X111132Y219799D02*
X188668D01*
X153761Y186499D02*
X188626D01*
X133848Y229699D02*
X188625D01*
X163129Y176599D02*
X188585D01*
X148534Y166699D02*
X188547D01*
X111254Y159499D02*
X188546D01*
X111288Y156799D02*
X188512D01*
X111291Y169399D02*
X188511D01*
X163863Y179299D02*
X188479D01*
X133375Y226999D02*
X188451D01*
X156461Y189199D02*
X188450D01*
X178411Y217099D02*
X188424D01*
X166361Y199099D02*
X188423D01*
X171813Y207199D02*
X188400D01*
X172211Y208999D02*
X188400D01*
X164561Y197299D02*
X188379D01*
X177475Y218899D02*
X188379D01*
X154661Y187399D02*
X188360D01*
X134000Y228799D02*
X188360D01*
X163729Y177499D02*
X188344D01*
X148286Y167599D02*
X188331D01*
X111470Y158599D02*
X188330D01*
X111480Y157699D02*
X188320D01*
X147628Y168499D02*
X188319D01*
X163943Y178399D02*
X188311D01*
X133860Y227899D02*
X188305D01*
X155561Y188299D02*
X188305D01*
X178152Y217999D02*
X188301D01*
X165461Y198199D02*
X188301D01*
X171335Y208099D02*
X188300D01*
X133069Y119899D02*
X174331D01*
X133615Y143299D02*
X173785D01*
X111421Y218899D02*
X173685D01*
X133897Y136099D02*
X173503D01*
X134231Y112699D02*
X173169D01*
X111499Y217999D02*
X173008D01*
X134596Y118999D02*
X172804D01*
X111376Y217099D02*
X172749D01*
X111033Y216199D02*
X172703D01*
X134817Y142399D02*
X172583D01*
X134951Y136999D02*
X172449D01*
X135123Y113599D02*
X172277D01*
X135322Y118099D02*
X172078D01*
X135445Y141499D02*
X171955D01*
X135520Y137899D02*
X171880D01*
X110394Y215299D02*
X171846D01*
X135615Y114499D02*
X171785D01*
X135721Y117199D02*
X171679D01*
X135782Y140599D02*
X171618D01*
X135816Y138799D02*
X171584D01*
X135856Y115399D02*
X171544D01*
X135889Y116299D02*
X171511D01*
X135899Y139699D02*
X171501D01*
X109164Y214399D02*
X170946D01*
X101800Y213499D02*
X170165D01*
X167238Y212599D02*
X170000D01*
X168825Y211699D02*
X170000D01*
X162716Y212599D02*
X166162D01*
X164050Y211699D02*
X164543D01*
X111083Y206299D02*
X160913D01*
X101800Y212599D02*
X160884D01*
X111400Y207199D02*
X160880D01*
X110484Y205399D02*
X160009D01*
X148361Y181099D02*
X159729D01*
X111500Y208099D02*
X159591D01*
X109365Y211699D02*
X159589D01*
X109360Y204499D02*
X159104D01*
X111400Y208999D02*
X159096D01*
X110487Y210799D02*
X159095D01*
X145534Y176599D02*
X159071D01*
X111084Y209899D02*
X158950D01*
X147461Y180199D02*
X158741D01*
X145698Y177499D02*
X158471D01*
X146561Y179299D02*
X158337D01*
X145702Y178399D02*
X158257D01*
X101800Y203599D02*
X158200D01*
X101800Y202699D02*
X157295D01*
X109169Y201799D02*
X156391D01*
X110396Y200899D02*
X155486D01*
X111034Y199999D02*
X154582D01*
X111377Y199099D02*
X153677D01*
X111499Y198199D02*
X152773D01*
X131683Y190099D02*
X151957D01*
X130761Y189199D02*
X151936D01*
X111421Y197299D02*
X151868D01*
X129861Y188299D02*
X151036D01*
X111130Y196399D02*
X150964D01*
X128961Y187399D02*
X150136D01*
X110569Y195499D02*
X150060D01*
X128061Y186499D02*
X149236D01*
X127161Y185599D02*
X148336D01*
X126261Y184699D02*
X147436D01*
X125361Y183799D02*
X146536D01*
X124461Y182899D02*
X145636D01*
X123561Y181999D02*
X144736D01*
X101800Y163999D02*
X144165D01*
X122661Y181099D02*
X143836D01*
X111481Y168499D02*
X143772D01*
X109962Y164899D02*
X143277D01*
X111469Y167599D02*
X143114D01*
X110793Y165799D02*
X142914D01*
X111253Y166699D02*
X142866D01*
X116361Y174799D02*
X141272D01*
X121761Y180199D02*
X140910D01*
X117261Y175699D02*
X140152D01*
X120861Y179299D02*
X140007D01*
X118161Y176599D02*
X139666D01*
X119961Y178399D02*
X139605D01*
X119061Y177499D02*
X139502D01*
X101800Y119899D02*
X130531D01*
X110978Y226099D02*
X130184D01*
X101800Y143299D02*
X129985D01*
X101800Y136099D02*
X129703D01*
X101800Y112699D02*
X129369D01*
X101800Y118999D02*
X129004D01*
X110667Y230599D02*
X128935D01*
X111349Y226999D02*
X128925D01*
X101800Y142399D02*
X128783D01*
X101800Y136999D02*
X128649D01*
X101800Y113599D02*
X128477D01*
X111175Y229699D02*
X128452D01*
X111495Y227899D02*
X128440D01*
X111440Y228799D02*
X128300D01*
X101800Y118099D02*
X128278D01*
X124289Y191899D02*
X128218D01*
X101800Y141499D02*
X128155D01*
X101800Y137899D02*
X128080D01*
X123339Y190999D02*
X128036D01*
X101800Y114499D02*
X127985D01*
X101800Y117199D02*
X127879D01*
X101800Y140599D02*
X127818D01*
X101800Y138799D02*
X127784D01*
X101800Y115399D02*
X127744D01*
X101800Y116299D02*
X127711D01*
X101800Y139699D02*
X127701D01*
X122389Y190099D02*
X127136D01*
X121439Y189199D02*
X126236D01*
X120489Y188299D02*
X125336D01*
X119540Y187399D02*
X124436D01*
X118590Y186499D02*
X123536D01*
X117640Y185599D02*
X122636D01*
X109533Y194599D02*
X122486D01*
X116690Y184699D02*
X121736D01*
X101800Y193699D02*
X121536D01*
X115740Y183799D02*
X120836D01*
X101800Y192799D02*
X120586D01*
X114790Y182899D02*
X119936D01*
X108943Y191899D02*
X119636D01*
X113841Y181999D02*
X119036D01*
X110300Y190999D02*
X118686D01*
X112891Y181099D02*
X118136D01*
X110980Y190099D02*
X117736D01*
X111941Y180199D02*
X117236D01*
X111350Y189199D02*
X116787D01*
X111324Y179299D02*
X116336D01*
X111495Y188299D02*
X115837D01*
X111489Y178399D02*
X115436D01*
X111440Y187399D02*
X114887D01*
X111456Y177499D02*
X114536D01*
X111174Y186499D02*
X113937D01*
X111215Y176599D02*
X113636D01*
X110649Y185599D02*
X112987D01*
X110723Y175699D02*
X112736D01*
X109689Y184699D02*
X112038D01*
X109831Y174799D02*
X111836D01*
X101800Y183799D02*
X111088D01*
X101800Y173899D02*
X110936D01*
X101800Y182899D02*
X110138D01*
X101800Y172999D02*
X110036D01*
X108669Y181999D02*
X109163D01*
X108306Y172099D02*
X109134D01*
X101800Y162199D02*
X107295D01*
X101800Y154099D02*
X106506D01*
X101800Y172099D02*
X106494D01*
X101800Y181999D02*
X106131D01*
X101800Y224299D02*
X105864D01*
X101800Y191899D02*
X105857D01*
X101800Y214399D02*
X105636D01*
X101800Y201799D02*
X105631D01*
X101800Y204499D02*
X105440D01*
X101800Y211699D02*
X105435D01*
X101800Y194599D02*
X105267D01*
X101800Y221599D02*
X105262D01*
X101800Y184699D02*
X105111D01*
X101800Y174799D02*
X104969D01*
X101800Y164899D02*
X104838D01*
X101800Y161299D02*
X104835D01*
X101800Y154999D02*
X104718D01*
X101800Y171199D02*
X104715D01*
X101800Y181099D02*
X104604D01*
X101800Y225199D02*
X104503D01*
X101800Y190999D02*
X104500D01*
X101800Y215299D02*
X104406D01*
X101800Y200899D02*
X104404D01*
X101800Y205399D02*
X104316D01*
X101800Y210799D02*
X104313D01*
X101800Y195499D02*
X104231D01*
X101800Y220699D02*
X104229D01*
X101800Y185599D02*
X104151D01*
X101800Y230599D02*
X104133D01*
X101800Y175699D02*
X104077D01*
X101800Y165799D02*
X104007D01*
X101800Y160399D02*
X104005D01*
X101800Y155899D02*
X103941D01*
X101800Y170299D02*
X103939D01*
X101800Y180199D02*
X103878D01*
X101800Y226099D02*
X103822D01*
X101800Y190099D02*
X103820D01*
X101800Y216199D02*
X103767D01*
X101800Y199999D02*
X103766D01*
X101800Y206299D02*
X103717D01*
X101800Y209899D02*
X103716D01*
X101800Y196399D02*
X103670D01*
X101800Y219799D02*
X103668D01*
X101800Y186499D02*
X103626D01*
X101800Y229699D02*
X103625D01*
X101800Y176599D02*
X103585D01*
X101800Y166699D02*
X103547D01*
X101800Y159499D02*
X103546D01*
X101800Y156799D02*
X103512D01*
X101800Y169399D02*
X103511D01*
X101800Y179299D02*
X103479D01*
X101800Y226999D02*
X103451D01*
X101800Y189199D02*
X103450D01*
X101800Y217099D02*
X103424D01*
X101800Y199099D02*
X103423D01*
X101800Y207199D02*
X103400D01*
X101800Y208999D02*
X103400D01*
X101800Y197299D02*
X103379D01*
X101800Y218899D02*
X103379D01*
X101800Y187399D02*
X103360D01*
X101800Y228799D02*
X103360D01*
X101800Y177499D02*
X103344D01*
X101800Y167599D02*
X103331D01*
X101800Y158599D02*
X103330D01*
X101800Y157699D02*
X103320D01*
X101800Y168499D02*
X103319D01*
X101800Y178399D02*
X103311D01*
X101800Y227899D02*
X103305D01*
X101800Y188299D02*
X103305D01*
X101800Y217999D02*
X103301D01*
X101800Y198199D02*
X103301D01*
X101800Y208099D02*
X103300D01*
X99900Y233100D02*
X199900D01*
Y99800*
X99900*
Y233100*
G54D23*
G54D24*
X195299Y160999D02*
X194521Y160221D01*
X189501Y160999D02*
X190279Y160221D01*
X189501Y155201D02*
X190279Y155979D01*
X195299Y155201D02*
X194521Y155979D01*
X110299Y160999D02*
X109521Y160221D01*
X104501Y160999D02*
X105279Y160221D01*
X104501Y155201D02*
X105279Y155979D01*
X110299Y155201D02*
X109521Y155979D01*
X133165Y230795D02*
X132387Y230017D01*
X129135Y230795D02*
X129913Y230017D01*
X129135Y226765D02*
X129913Y227543D01*
X133165Y226765D02*
X132387Y227543D01*
X163115Y180615D02*
X162337Y179837D01*
X159085Y180615D02*
X159863Y179837D01*
X159085Y176585D02*
X159863Y177363D01*
X163115Y176585D02*
X162337Y177363D01*
X147715Y168415D02*
X146937Y167637D01*
X143685Y168415D02*
X144463Y167637D01*
X143685Y164385D02*
X144463Y165163D01*
X147715Y164385D02*
X146937Y165163D01*
X163815Y211915D02*
X163037Y211137D01*
X159785Y211915D02*
X160563Y211137D01*
X159785Y207885D02*
X160563Y208663D01*
G54D42*
X145700Y166400D03*
X161100Y178600D03*
X166700Y209800D03*
X161800Y209900D03*
X170000Y205000D03*
X175580Y216770D03*
X131150Y228780D03*
G74*
X0Y0D02*
M02*
