*
*
G04 PADS 9.3.1 Build Number: 461647 generated Gerber (RS-274-X) file*
G04 PC Version=2.1*
*
%IN "1x1_test(routed).pcb"*%
*
%MOIN*%
*
%FSLAX35Y35*%
*
*
*
*
G04 PC Standard Apertures*
*
*
G04 Thermal Relief Aperture macro.*
%AMTER*
1,1,$1,0,0*
1,0,$1-$2,0,0*
21,0,$3,$4,0,0,45*
21,0,$3,$4,0,0,135*
%
*
*
G04 Annular Aperture macro.*
%AMANN*
1,1,$1,0,0*
1,0,$2,0,0*
%
*
*
G04 Odd Aperture macro.*
%AMODD*
1,1,$1,0,0*
1,0,$1-0.005,0,0*
%
*
*
G04 PC Custom Aperture Macros*
*
*
*
*
*
*
G04 PC Aperture Table*
*
%ADD010R,0.06X0.06*%
%ADD012C,0.06*%
%ADD015C,0.012*%
%ADD017C,0.01*%
%ADD023C,0.001*%
%ADD036R,0.02X0.035*%
%ADD038R,0.035X0.02*%
%ADD039C,0.032*%
%ADD041C,0.046*%
%ADD046C,0.008*%
%ADD047C,0.024*%
%ADD048C,0.006*%
%ADD049R,0.079X0.063*%
%ADD050R,0.02756X0.07087*%
%ADD051R,0.03937X0.0315*%
%ADD052R,0.03937X0.04724*%
%ADD053R,0.03937X0.11024*%
%ADD054R,0.05118X0.0748*%
%ADD055C,0.015*%
*
*
*
*
G04 PC Circuitry*
G04 Layer Name 1x1_test(routed).pcb - circuitry*
%LPD*%
*
*
G04 PC Custom Flashes*
G04 Layer Name 1x1_test(routed).pcb - flashes*
%LPD*%
*
*
G04 PC Circuitry*
G04 Layer Name 1x1_test(routed).pcb - circuitry*
%LPD*%
*
G54D10*
G01X144780Y105320D03*
X104700Y174810D03*
X205200Y105320D03*
X215020Y205600D03*
G54D12*
X117420Y205380D03*
Y195380D03*
Y185380D03*
Y175380D03*
Y165380D03*
Y155380D03*
Y145380D03*
Y135380D03*
X202420D03*
Y145380D03*
Y155380D03*
Y165380D03*
Y175380D03*
Y185380D03*
Y195380D03*
Y205380D03*
X134780Y105320D03*
X124780D03*
X114780D03*
X104700Y184810D03*
Y194810D03*
Y204810D03*
X195200Y105320D03*
X185200D03*
X175200D03*
X215020Y195600D03*
Y185600D03*
Y175600D03*
G54D15*
X112760Y113940D02*
Y118040D01*
X112720Y118080*
X154361Y112960D02*
X128000D01*
Y113940*
X154361Y112960D02*
X158160Y116539D01*
Y124500*
X176620Y113880D02*
X187331D01*
X188341Y114890*
X192710*
X198020Y120680D02*
X205120D01*
Y114680D02*
Y115080D01*
X198020*
X181120Y129280D02*
X186160D01*
X187010Y130130*
X192600*
X164414Y134280D02*
X166071Y135937D01*
Y138431*
X168020Y140380*
X164414Y134280D02*
X158055D01*
X150209Y142126*
Y144357*
X150274*
X195530Y205340D02*
X202420D01*
Y205380*
G54D17*
X118360Y113840D02*
X122400D01*
Y113940*
X118360Y113840D02*
Y113940D01*
X192710Y120490D02*
Y124530D01*
X192600*
X219120Y175600D02*
G75*
G03X219120I-4100J0D01*
G01Y185600D02*
G03X219120I-4100J0D01*
G01Y195600D02*
G03X219120I-4100J0D01*
G01X206520Y155380D02*
G03X206520I-4100J0D01*
G01Y165380D02*
G03X206520I-4100J0D01*
G01Y175380D02*
G03X206520I-4100J0D01*
G01X209920Y181280D02*
G03X209920I-2300J0D01*
G01X206520Y185380D02*
G03X206520I-4100J0D01*
G01X186120Y141380D02*
G03X186120I-2300J0D01*
G01X187420Y159180D02*
G03X187420I-2300J0D01*
G01X188220Y177880D02*
G03X188220I-2300J0D01*
G01X191820Y203880D02*
G03X191820I-2300J0D01*
G01X170230Y114220D02*
G03X170230I-2300J0D01*
G01X180420Y168280D02*
G03X180420I-2300J0D01*
G01X184720Y204280D02*
G03X184720I-2300J0D01*
G01X173910Y180650D02*
G03X173910I-2300J0D01*
G01Y189980D02*
G03X173910I-2300J0D01*
G01X161820Y183080D02*
G03X161820I-2300J0D01*
G01X151320Y163880D02*
G03X151320I-2300J0D01*
G01X147620Y167980D02*
G03X147620I-2300J0D01*
G01X140020Y170480D02*
G03X140020I-2300J0D01*
G01X144020Y186580D02*
G03X144020I-2300J0D01*
G01X121520Y135380D02*
G03X121520I-4100J0D01*
G01Y145380D02*
G03X121520I-4100J0D01*
G01Y155380D02*
G03X121520I-4100J0D01*
G01Y175380D02*
G03X121520I-4100J0D01*
G01Y195380D02*
G03X121520I-4100J0D01*
G01X118880Y105320D02*
G03X118880I-4100J0D01*
G01X138880D02*
G03X138880I-4100J0D01*
G01X128880D02*
G03X128880I-4100J0D01*
G01X193620Y135980D02*
G03X193620I-2300J0D01*
G01X199300Y105320D02*
G03X199300I-4100J0D01*
G01X189300D02*
G03X189300I-4100J0D01*
G01X179300D02*
G03X179300I-4100J0D01*
G01X219830Y100680D02*
Y209310D01*
X218860*
X219120Y208600D02*
G03X218860Y209310I-1100J0D01*
G01X219120Y208600D02*
Y202600D01*
X218020Y201500D02*
G03X219120Y202600I0J1100D01*
G01X218020Y201500D02*
X212020D01*
X210920Y202600D02*
G03X212020Y201500I1100J0D01*
G01X210920Y202600D02*
Y208600D01*
X211180Y209310D02*
G03X210920Y208600I840J-710D01*
G01X211180Y209310D02*
X209534D01*
X206467Y206036D02*
G03X209534Y209310I1163J1984D01*
G01X202902Y201308D02*
G03X206467Y206036I-482J4072D01*
G01X202733Y199468D02*
G03X202902Y201308I-2013J1112D01*
G01X199752Y198493D02*
G03X202733Y199468I2668J-3113D01*
G01X199483Y202519D02*
G03X199752Y198493I1237J-1939D01*
G01X198708Y203640D02*
G03X199483Y202519I3712J1740D01*
G01X198708Y203640D02*
X198129D01*
X197280Y203240D02*
G03X198129Y203640I0J1100D01*
G01X197280Y203240D02*
X193780D01*
X192680Y204340D02*
G03X193780Y203240I1100J0D01*
G01X192680Y204340D02*
Y206340D01*
X193780Y207440D02*
G03X192680Y206340I0J-1100D01*
G01X193780Y207440D02*
X197280D01*
X198129Y207040D02*
G03X197280Y207440I-849J-700D01*
G01X198129Y207040D02*
X198671D01*
X201252Y209310D02*
G03X198671Y207040I1168J-3930D01*
G01X201252Y209310D02*
X178175D01*
X178342Y208727D02*
G03X178175Y209310I-1100J-0D01*
G01X178342Y208727D02*
Y201246D01*
X177242Y200146D02*
G03X178342Y201246I0J1100D01*
G01X177242Y200146D02*
X172124D01*
X171024Y201246D02*
G03X172124Y200146I1100J0D01*
G01X171024Y201246D02*
Y208727D01*
X171191Y209310D02*
G03X171024Y208727I933J-583D01*
G01X171191Y209310D02*
X127387D01*
X127555Y208727D02*
G03X127387Y209310I-1100J-0D01*
G01X127555Y208727D02*
Y197703D01*
X126455Y196603D02*
G03X127555Y197703I-0J1100D01*
G01X126455Y196603D02*
X122518D01*
X121418Y197703D02*
G03X122518Y196603I1100J0D01*
G01X121418Y197703D02*
Y204469D01*
X116252Y209310D02*
G03X121418Y204469I1168J-3930D01*
G01X116252Y209310D02*
X100630D01*
Y205305*
Y204315D02*
G03Y205305I4070J495D01*
G01Y204315D02*
Y195305D01*
Y194315D02*
G03Y195305I4070J495D01*
G01Y194315D02*
Y185305D01*
Y184315D02*
G03Y185305I4070J495D01*
G01Y184315D02*
Y178065D01*
X101700Y178910D02*
G03X100630Y178065I0J-1100D01*
G01X101700Y178910D02*
X107700D01*
X108800Y177810D02*
G03X107700Y178910I-1100J0D01*
G01X108800Y177810D02*
Y171810D01*
X107700Y170710D02*
G03X108800Y171810I0J1100D01*
G01X107700Y170710D02*
X101700D01*
X100630Y171555D02*
G03X101700Y170710I1070J255D01*
G01X100630Y171555D02*
Y100680D01*
X219830*
X219120Y175600D02*
G03X219120I-4100J0D01*
G01Y185600D02*
G03X219120I-4100J0D01*
G01Y195600D02*
G03X219120I-4100J0D01*
G01X209300Y108320D02*
Y102320D01*
X208200Y101220D02*
G03X209300Y102320I0J1100D01*
G01X208200Y101220D02*
X202200D01*
X201100Y102320D02*
G03X202200Y101220I1100J0D01*
G01X201100Y102320D02*
Y108320D01*
X202200Y109420D02*
G03X201100Y108320I0J-1100D01*
G01X202200Y109420D02*
X208200D01*
X209300Y108320D02*
G03X208200Y109420I-1100J0D01*
G01X206720Y117680D02*
G03X202176Y122380I-1600J3000D01*
G01X203520Y117680D02*
G03X206720I1600J-3000D01*
G01X202176Y118980D02*
G03X203520Y117680I2944J1700D01*
G01X202176Y118980D02*
X200619D01*
X199770Y118580D02*
G03X200619Y118980I0J1100D01*
G01X199770Y118580D02*
X196270D01*
X195430Y118970D02*
G03X196270Y118580I840J710D01*
G01X194460Y118390D02*
G03X195430Y118970I0J1100D01*
G01X194460Y118390D02*
X190960D01*
X189860Y119490D02*
G03X190960Y118390I1100J0D01*
G01X189860Y119490D02*
Y121490D01*
X190497Y122488D02*
G03X189860Y121490I463J-998D01*
G01X189750Y123530D02*
G03X190497Y122488I1100J0D01*
G01X189750Y123530D02*
Y125530D01*
X190850Y126630D02*
G03X189750Y125530I0J-1100D01*
G01X190850Y126630D02*
X194350D01*
X195450Y125530D02*
G03X194350Y126630I-1100J0D01*
G01X195450Y125530D02*
Y123530D01*
X194813Y122532D02*
G03X195450Y123530I-463J998D01*
G01X195300Y122200D02*
G03X194813Y122532I-840J-710D01*
G01X196270Y122780D02*
G03X195300Y122200I0J-1100D01*
G01X196270Y122780D02*
X199770D01*
X200619Y122380D02*
G03X199770Y122780I-849J-700D01*
G01X200619Y122380D02*
X202176D01*
X202238Y141284D02*
G03X199607Y142397I182J4096D01*
G01X202411Y139480D02*
G03X202238Y141284I-2191J700D01*
G01X199320Y138063D02*
G03X202411Y139480I3100J-2683D01*
G01X199607Y142397D02*
G03X199320Y138063I613J-2217D01*
G01X206520Y155380D02*
G03X206520I-4100J0D01*
G01Y165380D02*
G03X206520I-4100J0D01*
G01Y175380D02*
G03X206520I-4100J0D01*
G01X209920Y181280D02*
G03X209920I-2300J0D01*
G01X206520Y185380D02*
G03X206520I-4100J0D01*
G01X186120Y141380D02*
G03X186120I-2300J0D01*
G01X187420Y159180D02*
G03X187420I-2300J0D01*
G01X188220Y177880D02*
G03X188220I-2300J0D01*
G01X191820Y203880D02*
G03X191820I-2300J0D01*
G01X170230Y114220D02*
G03X170230I-2300J0D01*
G01X178350Y127270D02*
Y120970D01*
X177250Y119870D02*
G03X178350Y120970I0J1100D01*
G01X177250Y119870D02*
X169350D01*
X168250Y120970D02*
G03X169350Y119870I1100J0D01*
G01X168250Y120970D02*
Y127270D01*
X169350Y128370D02*
G03X168250Y127270I0J-1100D01*
G01X169350Y128370D02*
X177250D01*
X178350Y127270D02*
G03X177250Y128370I-1100J0D01*
G01X180420Y168280D02*
G03X180420I-2300J0D01*
G01X184720Y204280D02*
G03X184720I-2300J0D01*
G01X169339Y130385D02*
G03X169501Y131575I2281J295D01*
G01X165423Y129845D02*
G03X169339Y130385I1797J1435D01*
G01X163438Y128966D02*
G03X165423Y129845I172J2294D01*
G01X163438Y128966D02*
X161941Y127469D01*
X160880Y127030D02*
G03X161941Y127469I0J1500D01*
G01X160880Y127030D02*
X157931D01*
X157642Y126741*
X159860Y122951D02*
G03X157642Y126741I-1700J1549D01*
G01X159860Y122951D02*
Y116539D01*
X159829Y116218D02*
G03X159860Y116539I-1669J321D01*
G01X163933Y114622D02*
G03X159829Y116218I-2293J178D01*
G01X161127Y112558D02*
G03X163933Y114622I2293J-178D01*
G01X159419Y115397D02*
G03X161127Y112558I2221J-597D01*
G01X159326Y115302D02*
G03X159419Y115397I-1166J1237D01*
G01X159326Y115302D02*
X155526Y111723D01*
X154361Y111260D02*
G03X155526Y111723I-0J1700D01*
G01X154361Y111260D02*
X129587D01*
X129000Y111090D02*
G03X129587Y111260I0J1100D01*
G01X129000Y111090D02*
X127000D01*
X125900Y112190D02*
G03X127000Y111090I1100J0D01*
G01X125900Y112190D02*
Y115690D01*
X126074Y116283D02*
G03X125900Y115690I926J-593D01*
G01X126900Y119888D02*
G03X126074Y116283I920J-2108D01*
G01X126900Y119888D02*
X125129Y121659D01*
X124798Y122160D02*
G03X125129Y121659I1392J560D01*
G01X124798Y122160D02*
X119800D01*
Y120510*
X118700Y119410D02*
G03X119800Y120510I0J1100D01*
G01X118700Y119410D02*
X114597D01*
X114460Y116576D02*
G03X114596Y119410I-1740J1504D01*
G01X114460Y116576D02*
Y116539D01*
X114860Y115690D02*
G03X114460Y116539I-1100J0D01*
G01X114860Y115690D02*
Y112190D01*
X113760Y111090D02*
G03X114860Y112190I0J1100D01*
G01X113760Y111090D02*
X111760D01*
X110660Y112190D02*
G03X111760Y111090I1100J0D01*
G01X110660Y112190D02*
Y115690D01*
X111034Y116516D02*
G03X110660Y115690I726J-826D01*
G01X110844Y119410D02*
G03X111034Y116516I1876J-1330D01*
G01X110843Y119410D02*
X110800D01*
X109700Y120510D02*
G03X110800Y119410I1100J0D01*
G01X109700Y120510D02*
Y126810D01*
X110800Y127910D02*
G03X109700Y126810I0J-1100D01*
G01X110800Y127910D02*
X118700D01*
X119698Y127273D02*
G03X118700Y127910I-998J-463D01*
G01X121204Y128866D02*
G03X119698Y127273I716J-2186D01*
G01X124136Y127294D02*
G03X121204Y128866I-716J2186D01*
G01X123646Y125160D02*
G03X124136Y127294I-1726J1520D01*
G01X123646Y125160D02*
X126190D01*
X126720Y125063D02*
G03X126190Y125160I-530J-1403D01*
G01X130900Y126405D02*
G03X126720Y125063I-1880J-1325D01*
G01X130900Y126405D02*
Y126810D01*
X132000Y127910D02*
G03X130900Y126810I0J-1100D01*
G01X132000Y127910D02*
X139900D01*
X141000Y126810D02*
G03X139900Y127910I-1100J0D01*
G01X141000Y126810D02*
Y122311D01*
X141820Y123131*
Y131510*
X142259Y132571D02*
G03X141820Y131510I1061J-1061D01*
G01X142259Y132571D02*
X144443Y134754D01*
Y139720*
X143777Y140045D02*
G03X144443Y139720I788J768D01*
G01X142990Y139713D02*
G03X143777Y140045I0J1100D01*
G01X142990Y139713D02*
X140234D01*
X139447Y140045D02*
G03X140234Y139713I787J768D01*
G01X138659D02*
G03X139447Y140045I0J1100D01*
G01X138659Y139713D02*
X135903D01*
X135116Y140045D02*
G03X135903Y139713I787J768D01*
G01X134329D02*
G03X135116Y140045I-0J1100D01*
G01X134329Y139713D02*
X131573D01*
X130785Y140045D02*
G03X131573Y139713I788J768D01*
G01X129998D02*
G03X130785Y140045I-0J1100D01*
G01X129998Y139713D02*
X127242D01*
X126461Y140039D02*
G03X127242Y139713I781J774D01*
G01X123649Y143080D02*
G03X126461Y140039I671J-2200D01*
G01X122576Y146780D02*
G03X123649Y143080I1744J-1500D01*
G01X126567Y148769D02*
G03X122576Y146780I-2247J-489D01*
G01X127120Y148993D02*
G03X126567Y148769I122J-1093D01*
G01X127120Y148993D02*
Y149536D01*
X127187Y153079D02*
G03X127120Y149536I1433J-1799D01*
G01X129753Y153281D02*
G03X127187Y153079I-1433J1799D01*
G01X130120Y149536D02*
G03X129753Y153281I-1500J1744D01*
G01X130120Y149536D02*
Y148993D01*
X130785Y148668D02*
G03X130120Y148993I-787J-768D01*
G01X131573Y149000D02*
G03X130785Y148668I-0J-1100D01*
G01X131573Y149000D02*
X134329D01*
X135116Y148668D02*
G03X134329Y149000I-787J-768D01*
G01X135903D02*
G03X135116Y148668I0J-1100D01*
G01X135903Y149000D02*
X137638D01*
X150179Y161541*
X151239Y161980D02*
G03X150179Y161541I0J-1500D01*
G01X151239Y161980D02*
X155220D01*
X158120*
X159181Y161541D02*
G03X158120Y161980I-1061J-1061D01*
G01X159181Y161541D02*
X161390Y159331D01*
X165572Y157613D02*
G03X161390Y159331I-2252J467D01*
G01X162768Y155847D02*
G03X165572Y157613I2252J-467D01*
G01X162717Y155860D02*
G03X162768Y155847I603J2220D01*
G01X160986Y153751D02*
G03X162717Y155860I-566J2229D01*
G01X161792Y149501D02*
G03X160986Y153751I-1172J1979D01*
G01X161792Y149501D02*
X161700Y148984D01*
X161888Y149000D02*
G03X161700Y148984I-0J-1100D01*
G01X161888Y149000D02*
X164644D01*
X165744Y147900D02*
G03X164644Y149000I-1100J0D01*
G01X165744Y147900D02*
Y140813D01*
X165680Y140444D02*
G03X165744Y140813I-1036J369D01*
G01X165680Y140444D02*
X165722Y140487D01*
X166982Y142433D02*
G03X165722Y140487I1038J-2053D01*
G01X166693Y143176D02*
G03X166982Y142433I1100J-0D01*
G01X166693Y143176D02*
Y147900D01*
X167793Y149000D02*
G03X166693Y147900I0J-1100D01*
G01X167793Y149000D02*
X171730D01*
X172830Y147900D02*
G03X171730Y149000I-1100J0D01*
G01X172830Y147900D02*
Y143176D01*
X171730Y142076D02*
G03X172830Y143176I0J1100D01*
G01X171730Y142076D02*
X169574D01*
X168127Y138082D02*
G03X169574Y142076I-107J2298D01*
G01X168127Y138082D02*
X167771Y137727D01*
Y135937*
X167274Y134735D02*
G03X167771Y135937I-1203J1202D01*
G01X167274Y134735D02*
X165616Y133078D01*
X165295Y132826D02*
G03X165616Y133078I-881J1454D01*
G01X165407Y132695D02*
G03X165295Y132826I-1797J-1435D01*
G01X169501Y131575D02*
G03X165407Y132695I-2281J-295D01*
G01X173910Y180650D02*
G03X173910I-2300J0D01*
G01Y189980D02*
G03X173910I-2300J0D01*
G01X165652Y168660D02*
G03X162358Y168690I-1632J1620D01*
X165652Y168660I1632J-1620*
G01X161820Y183080D02*
G03X161820I-2300J0D01*
G01X151320Y163880D02*
G03X151320I-2300J0D01*
G01X147620Y167980D02*
G03X147620I-2300J0D01*
G01X138583Y163169D02*
G03X137857Y165291I1537J1711D01*
G01X137210Y161459D02*
G03X138583Y163169I-890J2121D01*
G01X136630Y161301D02*
G03X137210Y161459I890J-2121D01*
G01X135219Y161561D02*
G03X136630Y161301I1101J2019D01*
G01X134021Y163659D02*
G03X135219Y161561I-1101J-2019D01*
G01X137857Y165291D02*
G03X134021Y163659I-1537J-1711D01*
G01X140020Y170480D02*
G03X140020I-2300J0D01*
G01X144020Y186580D02*
G03X144020I-2300J0D01*
G01X121520Y135380D02*
G03X121520I-4100J0D01*
G01Y145380D02*
G03X121520I-4100J0D01*
G01Y155380D02*
G03X121520I-4100J0D01*
G01X127555Y164829D02*
Y160105D01*
X126455Y159005D02*
G03X127555Y160105I-0J1100D01*
G01X126455Y159005D02*
X122518D01*
X121418Y160105D02*
G03X122518Y159005I1100J-0D01*
G01X121418Y160105D02*
Y164469D01*
X121519Y165291D02*
G03X121418Y164469I-4099J89D01*
G01X122518Y165929D02*
G03X121519Y165290I-0J-1100D01*
G01X122518Y165929D02*
X126455D01*
X127555Y164829D02*
G03X126455Y165929I-1100J0D01*
G01X121520Y175380D02*
G03X121520I-4100J0D01*
G01X127300Y189155D02*
G03X124903Y189551I-880J2125D01*
G01X127555Y188451D02*
G03X127300Y189155I-1100J0D01*
G01X127555Y188451D02*
Y185302D01*
X126455Y184202D02*
G03X127555Y185302I-0J1100D01*
G01X126455Y184202D02*
X122518D01*
X121492Y184903D02*
G03X122518Y184202I1026J399D01*
G01X121418Y186291D02*
G03X121492Y184903I-3998J-911D01*
G01X121418Y186291D02*
Y188451D01*
X122518Y189551D02*
G03X121418Y188451I-0J-1100D01*
G01X122518Y189551D02*
X124903D01*
X121520Y195380D02*
G03X121520I-4100J0D01*
G01X118880Y105320D02*
G03X118880I-4100J0D01*
G01X124500Y115690D02*
Y112190D01*
X123400Y111090D02*
G03X124500Y112190I0J1100D01*
G01X123400Y111090D02*
X121400D01*
X120380Y111778D02*
G03X121400Y111090I1020J412D01*
G01X119360D02*
G03X120380Y111778I0J1100D01*
G01X119360Y111090D02*
X117360D01*
X116260Y112190D02*
G03X117360Y111090I1100J0D01*
G01X116260Y112190D02*
Y115690D01*
X117360Y116790D02*
G03X116260Y115690I0J-1100D01*
G01X117360Y116790D02*
X119360D01*
X120380Y116102D02*
G03X119360Y116790I-1020J-412D01*
G01X121400D02*
G03X120380Y116102I0J-1100D01*
G01X121400Y116790D02*
X123400D01*
X124500Y115690D02*
G03X123400Y116790I-1100J0D01*
G01X148880Y108320D02*
Y102320D01*
X147780Y101220D02*
G03X148880Y102320I0J1100D01*
G01X147780Y101220D02*
X141780D01*
X140680Y102320D02*
G03X141780Y101220I1100J0D01*
G01X140680Y102320D02*
Y108320D01*
X141780Y109420D02*
G03X140680Y108320I0J-1100D01*
G01X141780Y109420D02*
X147780D01*
X148880Y108320D02*
G03X147780Y109420I-1100J0D01*
G01X138880Y105320D02*
G03X138880I-4100J0D01*
G01X128880D02*
G03X128880I-4100J0D01*
G01X195450Y131130D02*
Y129130D01*
X194350Y128030D02*
G03X195450Y129130I0J1100D01*
G01X194350Y128030D02*
X190850D01*
X190001Y128430D02*
G03X190850Y128030I849J700D01*
G01X190001Y128430D02*
X187714D01*
X187362Y128078*
X186160Y127580D02*
G03X187362Y128078I0J1700D01*
G01X186160Y127580D02*
X182669D01*
Y130980D02*
G03Y127580I-1549J-1700D01*
G01Y130980D02*
X185456D01*
X185808Y131332*
X187010Y131830D02*
G03X185808Y131332I0J-1700D01*
G01X187010Y131830D02*
X190001D01*
X190850Y132230D02*
G03X190001Y131830I0J-1100D01*
G01X190850Y132230D02*
X194350D01*
X195450Y131130D02*
G03X194350Y132230I-1100J0D01*
G01X193620Y135980D02*
G03X193620I-2300J0D01*
G01X198380Y200740D02*
Y198740D01*
X197280Y197640D02*
G03X198380Y198740I0J1100D01*
G01X197280Y197640D02*
X193780D01*
X192680Y198740D02*
G03X193780Y197640I1100J0D01*
G01X192680Y198740D02*
Y200740D01*
X193780Y201840D02*
G03X192680Y200740I0J-1100D01*
G01X193780Y201840D02*
X197280D01*
X198380Y200740D02*
G03X197280Y201840I-1100J0D01*
G01X199300Y105320D02*
G03X199300I-4100J0D01*
G01X189300D02*
G03X189300I-4100J0D01*
G01X179300D02*
G03X179300I-4100J0D01*
G01X200870Y116080D02*
Y114080D01*
X199770Y112980D02*
G03X200870Y114080I0J1100D01*
G01X199770Y112980D02*
X196270D01*
X195430Y113370D02*
G03X196270Y112980I840J710D01*
G01X194460Y112790D02*
G03X195430Y113370I0J1100D01*
G01X194460Y112790D02*
X190960D01*
X190111Y113190D02*
G03X190960Y112790I849J700D01*
G01X190111Y113190D02*
X189045D01*
X188533Y112678*
X187331Y112180D02*
G03X188533Y112678I0J1700D01*
G01X187331Y112180D02*
X178169D01*
Y115580D02*
G03Y112180I-1549J-1700D01*
G01Y115580D02*
X186627D01*
X187139Y116092*
X188341Y116590D02*
G03X187139Y116092I0J-1700D01*
G01X188341Y116590D02*
X190111D01*
X190960Y116990D02*
G03X190111Y116590I0J-1100D01*
G01X190960Y116990D02*
X194460D01*
X195300Y116600D02*
G03X194460Y116990I-840J-710D01*
G01X196270Y117180D02*
G03X195300Y116600I0J-1100D01*
G01X196270Y117180D02*
X199770D01*
X200870Y116080D02*
G03X199770Y117180I-1100J0D01*
G01X219120Y208529D02*
X219830D01*
X219120Y207629D02*
X219830D01*
X219120Y206729D02*
X219830D01*
X219120Y205829D02*
X219830D01*
X219120Y204929D02*
X219830D01*
X219120Y204029D02*
X219830D01*
X219120Y203129D02*
X219830D01*
X219055Y202229D02*
X219830D01*
X203050Y201329D02*
X219830D01*
X203015Y200429D02*
X219830D01*
X216193Y199529D02*
X219830D01*
X217784Y198629D02*
X219830D01*
X218524Y197729D02*
X219830D01*
X218932Y196829D02*
X219830D01*
X219107Y195929D02*
X219830D01*
X219080Y195029D02*
X219830D01*
X218847Y194129D02*
X219830D01*
X218365Y193229D02*
X219830D01*
X217492Y192329D02*
X219830D01*
X203514Y191429D02*
X219830D01*
X173844Y190529D02*
X219830D01*
X215781Y189629D02*
X219830D01*
X217670Y188729D02*
X219830D01*
X218461Y187829D02*
X219830D01*
X218899Y186929D02*
X219830D01*
X219098Y186029D02*
X219830D01*
X219093Y185129D02*
X219830D01*
X218884Y184229D02*
X219830D01*
X218433Y183329D02*
X219830D01*
X217619Y182429D02*
X219830D01*
X215504Y181529D02*
X219830D01*
X209826Y180629D02*
X219830D01*
X209318Y179729D02*
X219830D01*
X217547Y178829D02*
X219830D01*
X218395Y177929D02*
X219830D01*
X218863Y177029D02*
X219830D01*
X219086Y176129D02*
X219830D01*
X219103Y175229D02*
X219830D01*
X218918Y174329D02*
X219830D01*
X218498Y173429D02*
X219830D01*
X217736Y172529D02*
X219830D01*
X216039Y171629D02*
X219830D01*
X166276Y170729D02*
X219830D01*
X179820Y169829D02*
X219830D01*
X204474Y168929D02*
X219830D01*
X205550Y168029D02*
X219830D01*
X206128Y167129D02*
X219830D01*
X206431Y166229D02*
X219830D01*
X206520Y165329D02*
X219830D01*
X206408Y164429D02*
X219830D01*
X206078Y163529D02*
X219830D01*
X205460Y162629D02*
X219830D01*
X204285Y161729D02*
X219830D01*
X186724Y160829D02*
X219830D01*
X187295Y159929D02*
X219830D01*
X204290Y159029D02*
X219830D01*
X205462Y158129D02*
X219830D01*
X206080Y157229D02*
X219830D01*
X206409Y156329D02*
X219830D01*
X206520Y155429D02*
X219830D01*
X206431Y154529D02*
X219830D01*
X206127Y153629D02*
X219830D01*
X205547Y152729D02*
X219830D01*
X204469Y151829D02*
X219830D01*
X162853Y150929D02*
X219830D01*
X162404Y150029D02*
X219830D01*
X204081Y149129D02*
X219830D01*
X205369Y148229D02*
X219830D01*
X206027Y147329D02*
X219830D01*
X206384Y146429D02*
X219830D01*
X206517Y145529D02*
X219830D01*
X206451Y144629D02*
X219830D01*
X206173Y143729D02*
X219830D01*
X205630Y142829D02*
X219830D01*
X204633Y141929D02*
X219830D01*
X202358Y141029D02*
X219830D01*
X202519Y140129D02*
X219830D01*
X203833Y139229D02*
X219830D01*
X205269Y138329D02*
X219830D01*
X205971Y137429D02*
X219830D01*
X206356Y136529D02*
X219830D01*
X206512Y135629D02*
X219830D01*
X206468Y134729D02*
X219830D01*
X206215Y133829D02*
X219830D01*
X205707Y132929D02*
X219830D01*
X204782Y132029D02*
X219830D01*
X195450Y131129D02*
X219830D01*
X195450Y130229D02*
X219830D01*
X195450Y129329D02*
X219830D01*
X195197Y128429D02*
X219830D01*
X182611Y127529D02*
X219830D01*
X194404Y126629D02*
X219830D01*
X195432Y125729D02*
X219830D01*
X195450Y124829D02*
X219830D01*
X206123Y123929D02*
X219830D01*
X207578Y123029D02*
X219830D01*
X208196Y122129D02*
X219830D01*
X208475Y121229D02*
X219830D01*
X208502Y120329D02*
X219830D01*
X208281Y119429D02*
X219830D01*
X207753Y118529D02*
X219830D01*
X206813Y117629D02*
X219830D01*
X207833Y116729D02*
X219830D01*
X208320Y115829D02*
X219830D01*
X208511Y114929D02*
X219830D01*
X208457Y114029D02*
X219830D01*
X208145Y113129D02*
X219830D01*
X207476Y112229D02*
X219830D01*
X205693Y111329D02*
X219830D01*
X164638Y110429D02*
X219830D01*
X100630Y109529D02*
X219830D01*
X209256Y108629D02*
X219830D01*
X209300Y107729D02*
X219830D01*
X209300Y106829D02*
X219830D01*
X209300Y105929D02*
X219830D01*
X209300Y105029D02*
X219830D01*
X209300Y104129D02*
X219830D01*
X209300Y103229D02*
X219830D01*
X209300Y102329D02*
X219830D01*
X208845Y101429D02*
X219830D01*
X209907Y181529D02*
X214536D01*
X173883Y189629D02*
X214259D01*
X204075Y171629D02*
X214001D01*
X202766Y199529D02*
X213847D01*
X205159Y192329D02*
X212548D01*
X204637Y178829D02*
X212493D01*
X209613Y182429D02*
X212421D01*
X204786Y188729D02*
X212370D01*
X205366Y172529D02*
X212304D01*
X204921Y198629D02*
X212256D01*
X205910Y193229D02*
X211675D01*
X205632Y177929D02*
X211645D01*
X208665Y183329D02*
X211607D01*
X205708Y187829D02*
X211579D01*
X206026Y173429D02*
X211542D01*
X205781Y197729D02*
X211516D01*
X206324Y194129D02*
X211193D01*
X206174Y177029D02*
X211177D01*
X206355Y184229D02*
X211156D01*
X206216Y186929D02*
X211141D01*
X206383Y174329D02*
X211122D01*
X206256Y196829D02*
X211108D01*
X205043Y202229D02*
X210985D01*
X206505Y195029D02*
X210960D01*
X206451Y176129D02*
X210954D01*
X206512Y185129D02*
X210947D01*
X206468Y186029D02*
X210942D01*
X206517Y175229D02*
X210937D01*
X206483Y195929D02*
X210933D01*
X209873Y208529D02*
X210920D01*
X209896Y207629D02*
X210920D01*
X209533Y206729D02*
X210920D01*
X208329Y205829D02*
X210920D01*
X206495Y204929D02*
X210920D01*
X206291Y204029D02*
X210920D01*
X205847Y203129D02*
X210920D01*
X206495Y205829D02*
X206931D01*
X205970Y183329D02*
X206575D01*
X187288Y179729D02*
X205922D01*
X205266Y182429D02*
X205627D01*
X173910Y180629D02*
X205414D01*
X203826Y181529D02*
X205333D01*
X165466Y111329D02*
X204547D01*
X195450Y123929D02*
X204117D01*
X159860Y117629D02*
X203427D01*
X187735Y112229D02*
X202764D01*
X195329Y123029D02*
X202662D01*
X194995Y118529D02*
X202487D01*
X200658Y116729D02*
X202407D01*
X200322Y113129D02*
X202095D01*
X200870Y115829D02*
X201920D01*
X200869Y114029D02*
X201783D01*
X200870Y114929D02*
X201729D01*
X196491Y101429D02*
X201555D01*
X173396Y191429D02*
X201326D01*
X197621Y108629D02*
X201144D01*
X198518Y107729D02*
X201100D01*
X199012Y106829D02*
X201100D01*
X199255Y105929D02*
X201100D01*
X199290Y105029D02*
X201100D01*
X199123Y104129D02*
X201100D01*
X198727Y103229D02*
X201100D01*
X198004Y102329D02*
X201100D01*
X173736Y181529D02*
X201014D01*
X165883Y171629D02*
X200765D01*
X161726Y149129D02*
X200759D01*
X158951Y161729D02*
X200555D01*
X187415Y159029D02*
X200550D01*
X162893Y151829D02*
X200371D01*
X180327Y168929D02*
X200366D01*
X188015Y178829D02*
X200203D01*
X194984Y132029D02*
X200058D01*
X173540Y188729D02*
X200054D01*
X178342Y208529D02*
X199794D01*
X128467Y192329D02*
X199681D01*
X173068Y182429D02*
X199574D01*
X198374Y198629D02*
X199502D01*
X164503Y172529D02*
X199474D01*
X172780Y148229D02*
X199471D01*
X150950Y162629D02*
X199380D01*
X187166Y158129D02*
X199378D01*
X162552Y152729D02*
X199293D01*
X180406Y168029D02*
X199290D01*
X185606Y142829D02*
X199210D01*
X188220Y177929D02*
X199208D01*
X172103Y132929D02*
X199133D01*
X172424Y187829D02*
X199132D01*
X191121Y202229D02*
X199116D01*
X197713Y197729D02*
X199059D01*
X191694Y203129D02*
X198993D01*
X178342Y207629D02*
X198992D01*
X127642Y193229D02*
X198930D01*
X161807Y183329D02*
X198870D01*
X193106Y137429D02*
X198869D01*
X169060Y138329D02*
X198855D01*
X121026Y173429D02*
X198814D01*
X172830Y147329D02*
X198813D01*
X151293Y163529D02*
X198762D01*
X186338Y157229D02*
X198760D01*
X186054Y141929D02*
X198726D01*
X166511Y153629D02*
X198713D01*
X180111Y167129D02*
X198712D01*
X198380Y199529D02*
X198674D01*
X172830Y143729D02*
X198667D01*
X188057Y177029D02*
X198666D01*
X192134Y133829D02*
X198625D01*
X143993Y186929D02*
X198624D01*
X127122Y196829D02*
X198584D01*
X198209Y201329D02*
X198545D01*
X121324Y194129D02*
X198516D01*
X161513Y184229D02*
X198485D01*
X193554Y136529D02*
X198484D01*
X121383Y174329D02*
X198457D01*
X172830Y146429D02*
X198456D01*
X151254Y164429D02*
X198432D01*
X167115Y156329D02*
X198431D01*
X198380Y200429D02*
X198425D01*
X167157Y154529D02*
X198409D01*
X179160Y166229D02*
X198409D01*
X172830Y144629D02*
X198389D01*
X187411Y176129D02*
X198389D01*
X193250Y134729D02*
X198372D01*
X143953Y186029D02*
X198372D01*
X121483Y195929D02*
X198357D01*
X121505Y195029D02*
X198335D01*
X160565Y185129D02*
X198328D01*
X193593Y135629D02*
X198328D01*
X121517Y175229D02*
X198323D01*
X172830Y145529D02*
X198323D01*
X165493Y165329D02*
X198320D01*
X167320Y155429D02*
X198320D01*
X184634Y139229D02*
X198126D01*
X186093Y141029D02*
X198082D01*
X185750Y140129D02*
X197921D01*
X195254Y113129D02*
X195718D01*
X195172Y116729D02*
X195382D01*
X186491Y101429D02*
X193909D01*
X127555Y197729D02*
X193347D01*
X178342Y201329D02*
X192851D01*
X187621Y108629D02*
X192779D01*
X178342Y206729D02*
X192751D01*
X191815Y204029D02*
X192725D01*
X127555Y198629D02*
X192686D01*
X190742Y205829D02*
X192680D01*
X191567Y204929D02*
X192680D01*
X177978Y200429D02*
X192680D01*
X127555Y199529D02*
X192680D01*
X188004Y102329D02*
X192396D01*
X188518Y107729D02*
X191882D01*
X188727Y103229D02*
X191673D01*
X189012Y106829D02*
X191388D01*
X189123Y104129D02*
X191277D01*
X189255Y105929D02*
X191145D01*
X189290Y105029D02*
X191110D01*
X178350Y126629D02*
X190796D01*
X166367Y133829D02*
X190506D01*
X159860Y118529D02*
X190425D01*
X162893Y116729D02*
X190248D01*
X173483Y132029D02*
X190216D01*
X188984Y113129D02*
X190166D01*
X178350Y122129D02*
X190064D01*
X187713Y128429D02*
X190003D01*
X178350Y123029D02*
X189871D01*
X159860Y119429D02*
X189862D01*
X178350Y121229D02*
X189860D01*
X178144Y120329D02*
X189860D01*
X178350Y125729D02*
X189768D01*
X178350Y124829D02*
X189750D01*
X178350Y123929D02*
X189750D01*
X167771Y137429D02*
X189534D01*
X167267Y134729D02*
X189390D01*
X167771Y136529D02*
X189086D01*
X167743Y135629D02*
X189047D01*
X184120Y205829D02*
X188298D01*
X183460Y202229D02*
X187919D01*
X184627Y204929D02*
X187473D01*
X184411Y203129D02*
X187346D01*
X184706Y204029D02*
X187225D01*
X177842Y115829D02*
X186876D01*
X182488Y131129D02*
X185604D01*
X173717Y179729D02*
X184552D01*
X121451Y176129D02*
X184429D01*
X176491Y101429D02*
X183909D01*
X166388Y157229D02*
X183902D01*
X173015Y178829D02*
X183825D01*
X121174Y177029D02*
X183783D01*
X120632Y177929D02*
X183620D01*
X159893Y160829D02*
X183516D01*
X165620Y158129D02*
X183074D01*
X170011Y139229D02*
X183006D01*
X164688Y159929D02*
X182945D01*
X165415Y159029D02*
X182825D01*
X177621Y108629D02*
X182779D01*
X178004Y102329D02*
X182396D01*
X172774Y142829D02*
X182034D01*
X170306Y140129D02*
X181890D01*
X178518Y107729D02*
X181882D01*
X178727Y103229D02*
X181673D01*
X169720Y141929D02*
X181586D01*
X170227Y141029D02*
X181547D01*
X179012Y106829D02*
X181388D01*
X178342Y202229D02*
X181380D01*
X179123Y104129D02*
X181277D01*
X179255Y105929D02*
X181145D01*
X179290Y105029D02*
X181110D01*
X178342Y205829D02*
X180720D01*
X178342Y203129D02*
X180429D01*
X178342Y204929D02*
X180213D01*
X178342Y204029D02*
X180134D01*
X173876Y131129D02*
X179752D01*
X178319Y127529D02*
X179629D01*
X173875Y130229D02*
X179025D01*
X172091Y128429D02*
X178983D01*
X173481Y129329D02*
X178820D01*
X166131Y166229D02*
X177080D01*
X166275Y169829D02*
X176420D01*
X166289Y167129D02*
X176129D01*
X165881Y168929D02*
X175913D01*
X166081Y168029D02*
X175834D01*
X169574Y115829D02*
X175398D01*
X169081Y112229D02*
X175019D01*
X170118Y114929D02*
X174573D01*
X169955Y113129D02*
X174446D01*
X170222Y114029D02*
X174325D01*
X148425Y101429D02*
X173909D01*
X148836Y108629D02*
X172779D01*
X148880Y102329D02*
X172396D01*
X148880Y107729D02*
X171882D01*
X148880Y103229D02*
X171673D01*
X127555Y200429D02*
X171388D01*
X148880Y106829D02*
X171388D01*
X148880Y104129D02*
X171277D01*
X162900Y128429D02*
X171149D01*
X148880Y105929D02*
X171145D01*
X168824Y132929D02*
X171137D01*
X148880Y105029D02*
X171110D01*
X127555Y208529D02*
X171024D01*
X127555Y207629D02*
X171024D01*
X127555Y206729D02*
X171024D01*
X127555Y205829D02*
X171024D01*
X127555Y204929D02*
X171024D01*
X127555Y204029D02*
X171024D01*
X127555Y203129D02*
X171024D01*
X127555Y202229D02*
X171024D01*
X127555Y201329D02*
X171024D01*
X143652Y187829D02*
X170796D01*
X119637Y178829D02*
X170205D01*
X161726Y182429D02*
X170152D01*
X128715Y191429D02*
X169824D01*
X168438Y129329D02*
X169759D01*
X169395Y132029D02*
X169757D01*
X142541Y188729D02*
X169680D01*
X100630Y179729D02*
X169503D01*
X161218Y181529D02*
X169484D01*
X128594Y190529D02*
X169376D01*
X169266Y130229D02*
X169365D01*
X128021Y189629D02*
X169337D01*
X100630Y180629D02*
X169310D01*
X159860Y120329D02*
X168456D01*
X162000Y127529D02*
X168281D01*
X159031Y126629D02*
X168250D01*
X160104Y125729D02*
X168250D01*
X160436Y124829D02*
X168250D01*
X160388Y123929D02*
X168250D01*
X159928Y123029D02*
X168250D01*
X159860Y122129D02*
X168250D01*
X159860Y121229D02*
X168250D01*
X165715Y112229D02*
X166779D01*
X165744Y142829D02*
X166749D01*
X165693Y148229D02*
X166743D01*
X165744Y147329D02*
X166693D01*
X165744Y146429D02*
X166693D01*
X165744Y145529D02*
X166693D01*
X165744Y144629D02*
X166693D01*
X165744Y143729D02*
X166693D01*
X165744Y141929D02*
X166320D01*
X163697Y115829D02*
X166286D01*
X164859Y129329D02*
X166002D01*
X165595Y113129D02*
X165905D01*
X165744Y141029D02*
X165813D01*
X163936Y114929D02*
X165742D01*
X165024Y114029D02*
X165638D01*
X165446Y132929D02*
X165616D01*
X138765Y172529D02*
X163537D01*
X161441Y153629D02*
X163529D01*
X162204Y154529D02*
X162883D01*
X162653Y155429D02*
X162720D01*
X150806Y165329D02*
X162487D01*
X100630Y110429D02*
X162202D01*
X147415Y168929D02*
X162159D01*
X139713Y171629D02*
X162157D01*
X160793Y159929D02*
X161952D01*
X147620Y168029D02*
X161899D01*
X146811Y166229D02*
X161849D01*
X146688Y169829D02*
X161765D01*
X140007Y170729D02*
X161764D01*
X147457Y167129D02*
X161691D01*
X154839Y111329D02*
X161374D01*
X156063Y112229D02*
X161125D01*
X159860Y116729D02*
X160387D01*
X157019Y113129D02*
X160060D01*
X157974Y114029D02*
X159473D01*
X158929Y114929D02*
X159344D01*
X143504Y185129D02*
X158475D01*
X118826Y181529D02*
X157822D01*
X126697Y184229D02*
X157527D01*
X120266Y182429D02*
X157314D01*
X120970Y183329D02*
X157233D01*
X149834Y161729D02*
X150408D01*
X139124Y160829D02*
X149467D01*
X139695Y159929D02*
X148567D01*
X137685Y161729D02*
X148206D01*
X139815Y159029D02*
X147667D01*
X142376Y165329D02*
X147234D01*
X140591Y162629D02*
X147090D01*
X142375Y164429D02*
X146786D01*
X139566Y158129D02*
X146767D01*
X141981Y163529D02*
X146747D01*
X138738Y157229D02*
X145867D01*
X130252Y156329D02*
X144967D01*
X125921Y139229D02*
X144443D01*
X120269Y138329D02*
X144443D01*
X120971Y137429D02*
X144443D01*
X121356Y136529D02*
X144443D01*
X121512Y135629D02*
X144443D01*
X121468Y134729D02*
X144417D01*
X130593Y155429D02*
X144067D01*
X139926Y169829D02*
X143952D01*
X141983Y166229D02*
X143829D01*
X121215Y133829D02*
X143517D01*
X139418Y168929D02*
X143225D01*
X140603Y167129D02*
X143183D01*
X130553Y154529D02*
X143167D01*
X120550Y168029D02*
X143020D01*
X120707Y132929D02*
X142617D01*
X130104Y153629D02*
X142267D01*
X119782Y132029D02*
X141913D01*
X125024Y131129D02*
X141820D01*
X125595Y130229D02*
X141820D01*
X125715Y129329D02*
X141820D01*
X125466Y128429D02*
X141820D01*
X140733Y127529D02*
X141820D01*
X141000Y126629D02*
X141820D01*
X141000Y125729D02*
X141820D01*
X141000Y124829D02*
X141820D01*
X141000Y123929D02*
X141820D01*
X141000Y123029D02*
X141717D01*
X130406Y152729D02*
X141367D01*
X136071Y101429D02*
X141135D01*
X127519Y188729D02*
X140899D01*
X137201Y108629D02*
X140724D01*
X138098Y107729D02*
X140680D01*
X138592Y106829D02*
X140680D01*
X138835Y105929D02*
X140680D01*
X138870Y105029D02*
X140680D01*
X138703Y104129D02*
X140680D01*
X138307Y103229D02*
X140680D01*
X137584Y102329D02*
X140680D01*
X130854Y151829D02*
X140467D01*
X127541Y185129D02*
X139936D01*
X127555Y187829D02*
X139788D01*
X138414Y162629D02*
X139649D01*
X121128Y167129D02*
X139637D01*
X130893Y150929D02*
X139567D01*
X127555Y186029D02*
X139487D01*
X127555Y186929D02*
X139447D01*
X130550Y150029D02*
X138667D01*
X121431Y166229D02*
X138257D01*
X137814Y165329D02*
X137864D01*
X130120Y149129D02*
X137767D01*
X120366Y172529D02*
X136675D01*
X129141Y157229D02*
X136302D01*
X119474Y168929D02*
X136022D01*
X135072Y160829D02*
X135916D01*
X119075Y171629D02*
X135727D01*
X100630Y169829D02*
X135514D01*
X120462Y158129D02*
X135474D01*
X107902Y170729D02*
X135433D01*
X134457Y159929D02*
X135345D01*
X126683Y159029D02*
X135225D01*
X127435Y165329D02*
X134826D01*
X127555Y164429D02*
X134182D01*
X126071Y101429D02*
X133489D01*
X127201Y108629D02*
X132359D01*
X127584Y102329D02*
X131976D01*
X127555Y163529D02*
X131607D01*
X128098Y107729D02*
X131462D01*
X127540Y159929D02*
X131383D01*
X128307Y103229D02*
X131253D01*
X124638Y127529D02*
X131167D01*
X128592Y106829D02*
X130968D01*
X130720Y126629D02*
X130900D01*
X128703Y104129D02*
X130857D01*
X127555Y162629D02*
X130843D01*
X127555Y160829D02*
X130768D01*
X128835Y105929D02*
X130725D01*
X128870Y105029D02*
X130690D01*
X127555Y161729D02*
X130622D01*
X121080Y157229D02*
X127499D01*
X124219Y126629D02*
X127320D01*
X126458Y149129D02*
X127120D01*
X120547Y152729D02*
X126834D01*
X124014Y125729D02*
X126813D01*
X125814Y150029D02*
X126690D01*
X121127Y153629D02*
X126536D01*
X119785Y120329D02*
X126460D01*
X121409Y156329D02*
X126388D01*
X119469Y151829D02*
X126386D01*
X100630Y150929D02*
X126347D01*
X124084Y111329D02*
X126316D01*
X118902Y119429D02*
X126216D01*
X121431Y154529D02*
X126087D01*
X121520Y155429D02*
X126047D01*
X124491Y115829D02*
X125909D01*
X124500Y114929D02*
X125900D01*
X124500Y114029D02*
X125900D01*
X124500Y113129D02*
X125900D01*
X124500Y112229D02*
X125900D01*
X123762Y116729D02*
X125774D01*
X114976Y118529D02*
X125645D01*
X119800Y121229D02*
X125560D01*
X114975Y117629D02*
X125525D01*
X120910Y193229D02*
X125198D01*
X100630Y189629D02*
X124819D01*
X119800Y122129D02*
X124811D01*
X120159Y192329D02*
X124373D01*
X100630Y190529D02*
X124246D01*
X118514Y191429D02*
X124125D01*
X116071Y101429D02*
X123489D01*
X120630Y142829D02*
X123098D01*
X100630Y150029D02*
X122826D01*
X118833Y139229D02*
X122719D01*
X121173Y143729D02*
X122622D01*
X117201Y108629D02*
X122359D01*
X121384Y146429D02*
X122327D01*
X119290Y159029D02*
X122289D01*
X121355Y184229D02*
X122275D01*
X119633Y141929D02*
X122273D01*
X121027Y147329D02*
X122226D01*
X119081Y149129D02*
X122182D01*
X100630Y140129D02*
X122146D01*
X121451Y144629D02*
X122114D01*
X121517Y145529D02*
X122033D01*
X100630Y141029D02*
X122025D01*
X120369Y148229D02*
X122021D01*
X117584Y102329D02*
X121976D01*
X121256Y196829D02*
X121850D01*
X100630Y131129D02*
X121816D01*
X121520Y165329D02*
X121538D01*
X118098Y107729D02*
X121462D01*
X119786Y188729D02*
X121453D01*
X100630Y159929D02*
X121432D01*
X121291Y204029D02*
X121418D01*
X120847Y203129D02*
X121418D01*
X120043Y202229D02*
X121418D01*
X118050Y201329D02*
X121418D01*
X100630Y200429D02*
X121418D01*
X100630Y199529D02*
X121418D01*
X119921Y198629D02*
X121418D01*
X120781Y197729D02*
X121418D01*
X120708Y187829D02*
X121418D01*
X121216Y186929D02*
X121418D01*
X121408Y164429D02*
X121418D01*
X121078Y163529D02*
X121418D01*
X120460Y162629D02*
X121418D01*
X119285Y161729D02*
X121418D01*
X100630Y160829D02*
X121418D01*
X118307Y103229D02*
X121253D01*
X100630Y130229D02*
X121245D01*
X100630Y129329D02*
X121125D01*
X119722Y116729D02*
X121038D01*
X118592Y106829D02*
X120968D01*
X118703Y104129D02*
X120857D01*
X118835Y105929D02*
X120725D01*
X120044Y111329D02*
X120716D01*
X118870Y105029D02*
X120690D01*
X100630Y128429D02*
X120426D01*
X119533Y127529D02*
X119782D01*
X114581Y116729D02*
X116998D01*
X106866Y201329D02*
X116790D01*
X114444Y111329D02*
X116676D01*
X107019Y191429D02*
X116326D01*
X114851Y115829D02*
X116269D01*
X114860Y114929D02*
X116260D01*
X114860Y114029D02*
X116260D01*
X114860Y113129D02*
X116260D01*
X114860Y112229D02*
X116260D01*
X107158Y181529D02*
X116014D01*
X100630Y139229D02*
X116007D01*
X108785Y171629D02*
X115765D01*
X100630Y149129D02*
X115759D01*
X100630Y161729D02*
X115555D01*
X100630Y159029D02*
X115550D01*
X100630Y151829D02*
X115371D01*
X100630Y168929D02*
X115366D01*
X100630Y141929D02*
X115207D01*
X108115Y178829D02*
X115203D01*
X100630Y132029D02*
X115058D01*
X105906Y188729D02*
X115054D01*
X106193Y198629D02*
X114919D01*
X107885Y202229D02*
X114797D01*
X106427Y208529D02*
X114794D01*
X107964Y192329D02*
X114681D01*
X108038Y182429D02*
X114574D01*
X100630Y138329D02*
X114571D01*
X108800Y172529D02*
X114474D01*
X100630Y148229D02*
X114471D01*
X100630Y162629D02*
X114380D01*
X100630Y158129D02*
X114378D01*
X100630Y152729D02*
X114293D01*
X100630Y168029D02*
X114290D01*
X100630Y142829D02*
X114210D01*
X108794Y177929D02*
X114208D01*
X100630Y132929D02*
X114133D01*
X107474Y187829D02*
X114132D01*
X107579Y197729D02*
X114059D01*
X108439Y203129D02*
X113993D01*
X107677Y207629D02*
X113992D01*
X108483Y193229D02*
X113930D01*
X108523Y183329D02*
X113870D01*
X100630Y137429D02*
X113869D01*
X108800Y173429D02*
X113814D01*
X100630Y147329D02*
X113813D01*
X100630Y163529D02*
X113762D01*
X100630Y157229D02*
X113760D01*
X100630Y153629D02*
X113713D01*
X100630Y167129D02*
X113712D01*
X100630Y143729D02*
X113667D01*
X108800Y177029D02*
X113666D01*
X100630Y133829D02*
X113625D01*
X108210Y186929D02*
X113624D01*
X108269Y196829D02*
X113584D01*
X108725Y204029D02*
X113549D01*
X108323Y206729D02*
X113548D01*
X108743Y194129D02*
X113516D01*
X100630Y101429D02*
X113489D01*
X108759Y184229D02*
X113485D01*
X100630Y136529D02*
X113484D01*
X108800Y174329D02*
X113457D01*
X100630Y146429D02*
X113456D01*
X100630Y164429D02*
X113432D01*
X100630Y156329D02*
X113431D01*
X100630Y154529D02*
X113409D01*
X100630Y166229D02*
X113409D01*
X100630Y144629D02*
X113389D01*
X108800Y176129D02*
X113389D01*
X100630Y134729D02*
X113372D01*
X108615Y186029D02*
X113372D01*
X108644Y195929D02*
X113357D01*
X108798Y204929D02*
X113345D01*
X108671Y205829D02*
X113345D01*
X108794Y195029D02*
X113335D01*
X108788Y185129D02*
X113328D01*
X100630Y135629D02*
X113328D01*
X108800Y175229D02*
X113323D01*
X100630Y145529D02*
X113323D01*
X100630Y165329D02*
X113320D01*
X100630Y155429D02*
X113320D01*
X100630Y108629D02*
X112359D01*
X100630Y102329D02*
X111976D01*
X100630Y107729D02*
X111462D01*
X100630Y103229D02*
X111253D01*
X100630Y111329D02*
X111076D01*
X100630Y106829D02*
X110968D01*
X100630Y116729D02*
X110859D01*
X100630Y104129D02*
X110857D01*
X100630Y105929D02*
X110725D01*
X100630Y105029D02*
X110690D01*
X100630Y115829D02*
X110669D01*
X100630Y114929D02*
X110660D01*
X100630Y114029D02*
X110660D01*
X100630Y113129D02*
X110660D01*
X100630Y112229D02*
X110660D01*
X100630Y119429D02*
X110598D01*
X100630Y117629D02*
X110465D01*
X100630Y118529D02*
X110464D01*
X100630Y127529D02*
X109967D01*
X100630Y120329D02*
X109715D01*
X100630Y126629D02*
X109700D01*
X100630Y125729D02*
X109700D01*
X100630Y124829D02*
X109700D01*
X100630Y123929D02*
X109700D01*
X100630Y123029D02*
X109700D01*
X100630Y122129D02*
X109700D01*
X100630Y121229D02*
X109700D01*
X100630Y188729D02*
X103494D01*
X100630Y198629D02*
X103207D01*
X100630Y208529D02*
X102973D01*
X100630Y201329D02*
X102534D01*
X100630Y191429D02*
X102381D01*
X100630Y181529D02*
X102242D01*
X100630Y187829D02*
X101926D01*
X100630Y197729D02*
X101821D01*
X100630Y207629D02*
X101723D01*
X100630Y202229D02*
X101515D01*
X100630Y170729D02*
X101498D01*
X100630Y192329D02*
X101436D01*
X100630Y182429D02*
X101362D01*
X100630Y178829D02*
X101285D01*
X100630Y186929D02*
X101190D01*
X100630Y196829D02*
X101131D01*
X100630Y206729D02*
X101077D01*
X100630Y203129D02*
X100961D01*
X100630Y193229D02*
X100917D01*
X100630Y183329D02*
X100877D01*
X100630Y186029D02*
X100785D01*
X100630Y195929D02*
X100756D01*
X100630Y205829D02*
X100729D01*
X100630Y204029D02*
X100675D01*
X100630Y194129D02*
X100657D01*
X100630Y184229D02*
X100641D01*
X178028Y120192D02*
X176327Y121893D01*
X178028Y128048D02*
X176327Y126347D01*
X168572Y128048D02*
X170273Y126347D01*
X168572Y120192D02*
X170273Y121893D01*
X140678Y127588D02*
X138977Y125887D01*
X131222Y127588D02*
X132923Y125887D01*
X127232Y184524D02*
X125993Y185763D01*
X121740Y189229D02*
X122979Y187990D01*
X121740Y184524D02*
X122979Y185763D01*
X139456Y140036D02*
X140638Y141217D01*
X143768Y140036D02*
X142586Y141217D01*
X193002Y201518D02*
X194073Y200447D01*
X193002Y197962D02*
X194073Y199033D01*
X198058Y197962D02*
X196987Y199033D01*
X198058Y201518D02*
X196987Y200447D01*
X195492Y116858D02*
X196563Y115787D01*
X195492Y113302D02*
X196563Y114373D01*
X200548Y113302D02*
X199477Y114373D01*
X200548Y116858D02*
X199477Y115787D01*
X99530Y210930D02*
X220930D01*
Y99580*
X99530*
Y210930*
G54D23*
G54D36*
X122400Y113940D03*
X128000D03*
X118360D03*
X112760D03*
G54D38*
X198020Y120680D03*
Y115080D03*
X192600Y124530D03*
Y130130D03*
X195530Y205340D03*
Y199740D03*
X192710Y120490D03*
Y114890D03*
G54D39*
X146610Y117360D03*
X142210D03*
G54D41*
X205120Y120680D03*
Y114680D03*
G54D46*
X132220D02*
X131300D01*
X130020Y115960*
Y118890*
X126190Y122720*
Y123660*
X114750*
X132220Y114680D02*
X135110D01*
X135190Y114760*
X147690*
X149210Y116280*
Y118460*
X147150Y120520*
Y127690*
X150750Y131290*
X160170*
X135950Y119510D02*
X140320D01*
X143320Y122510*
Y131510*
X145943Y134133*
Y144357*
X135950Y119510D02*
X131580D01*
X129020Y122070*
Y125080*
X152100Y124120D02*
X152900D01*
X157310Y128530*
X160880*
X163610Y131260*
X128620Y144357D02*
Y151280D01*
X137281Y144357D02*
Y146522D01*
X151239Y160480*
X155220*
X154604Y144357D02*
Y145096D01*
X157120Y151280*
X158935Y144357D02*
X159913D01*
Y147500*
X160620Y151480*
X160420Y155980D02*
Y158180D01*
X158120Y160480*
X155220*
G54D47*
X112720Y118080D03*
X127820Y117780D03*
X132220Y116880D03*
X163420Y112380D03*
X161640Y114800D03*
X167930Y114220D03*
X176620Y113880D03*
X123420Y129480D03*
X129020Y125080D03*
X121920Y126680D03*
X158160Y124500D03*
X160170Y131290D03*
X167220Y131280D03*
X163610Y131260D03*
X171620Y130680D03*
X181120Y129280D03*
X124320Y140880D03*
X161320Y138880D03*
X163420Y136680D03*
X168020Y140380D03*
X183820Y141380D03*
X191320Y135980D03*
X200220Y140180D03*
X128620Y151280D03*
X124320Y145280D03*
Y148280D03*
X157120Y151280D03*
X160620Y151480D03*
X128320Y155080D03*
X137520Y159180D03*
X157420Y156180D03*
X155220Y153680D03*
X160420Y155980D03*
X151720Y157280D03*
X155220Y158280D03*
X165020Y155380D03*
X163320Y158080D03*
X185120Y159180D03*
X132920Y161640D03*
X136320Y163580D03*
X137720Y170480D03*
X140120Y164880D03*
X145320Y167980D03*
X149020Y163880D03*
X163990Y167070D03*
X164020Y170280D03*
X178120Y168280D03*
X171610Y180650D03*
X185920Y177880D03*
X207620Y181280D03*
X126420Y191280D03*
X141720Y186580D03*
X159520Y183080D03*
X171610Y189980D03*
X200720Y200580D03*
X189520Y203880D03*
X182420Y204280D03*
X207630Y208020D03*
G54D48*
X149726Y201339D02*
Y203839D01*
X149613Y204307*
X149613D02*
X149499Y204464D01*
X149272Y204620*
X149045*
X148817Y204464*
X148704Y204307*
X148704D02*
X148590Y203839D01*
Y203526*
X150976Y201339D02*
X152226D01*
X151545Y202589*
X151885*
X152113Y202745*
X152226Y202901*
X152340Y203370*
Y203682*
X152340D02*
X152226Y204151D01*
X151999Y204464*
X151658Y204620*
X151317*
X150976Y204464*
X150863Y204307*
X150863D02*
X150749Y203995D01*
G54D49*
X152100Y124120D03*
X173300D03*
X114750Y123660D03*
X135950D03*
G54D50*
X163266Y144357D03*
X158935D03*
X154604D03*
X150274D03*
X145943D03*
X141612D03*
X137281D03*
X132951D03*
X128620D03*
G54D51*
X124486Y186876D03*
G54D52*
Y162467D03*
X169762Y145538D03*
G54D53*
X124486Y203215D03*
G54D54*
X174683Y204987D03*
G54D55*
X120319Y138279D02*
X119541Y137501D01*
X114521Y138279D02*
X115299Y137501D01*
X114521Y132481D02*
X115299Y133259D01*
X120319Y132481D02*
X119541Y133259D01*
X131881Y102421D02*
X132659Y103199D01*
X137679Y102421D02*
X136901Y103199D01*
X137679Y108219D02*
X136901Y107441D01*
X131881Y108219D02*
X132659Y107441D01*
X141002Y101542D02*
X142659Y103199D01*
X141002Y109098D02*
X142659Y107441D01*
X148558Y109098D02*
X146901Y107441D01*
X148558Y101542D02*
X146901Y103199D01*
X121881Y102421D02*
X122659Y103199D01*
X127679Y102421D02*
X126901Y103199D01*
X127679Y108219D02*
X126901Y107441D01*
X121881Y108219D02*
X122659Y107441D01*
X111881Y102421D02*
X112659Y103199D01*
X117679Y102421D02*
X116901Y103199D01*
X117679Y108219D02*
X116901Y107441D01*
X111881Y108219D02*
X112659Y107441D01*
X218798Y201822D02*
X217141Y203479D01*
X211242Y201822D02*
X212899Y203479D01*
X211242Y209378D02*
X212899Y207721D01*
X218798Y209378D02*
X217141Y207721D01*
X205319Y138279D02*
X204541Y137501D01*
X199521Y132481D02*
X200299Y133259D01*
X205319Y132481D02*
X204541Y133259D01*
X100922Y178588D02*
X102579Y176931D01*
X108478Y178588D02*
X106821Y176931D01*
X108478Y171032D02*
X106821Y172689D01*
X100922Y171032D02*
X102579Y172689D01*
X207524Y117084D02*
X206746Y116306D01*
X202716Y117084D02*
X203494Y116306D01*
X202716Y112276D02*
X203494Y113054D01*
X207524Y112276D02*
X206746Y113054D01*
X173246Y132306D02*
X172469Y131529D01*
X169994Y132306D02*
X170771Y131529D01*
X169994Y129054D02*
X170771Y129831D01*
X173246Y129054D02*
X172469Y129831D01*
X186746Y160806D02*
X185969Y160029D01*
X183494Y160806D02*
X184271Y160029D01*
X183494Y157554D02*
X184271Y158331D01*
X186746Y157554D02*
X185969Y158331D01*
X143346Y188206D02*
X142569Y187429D01*
X140094Y188206D02*
X140871Y187429D01*
X140094Y184954D02*
X140871Y185731D01*
X143346Y184954D02*
X142569Y185731D01*
X141746Y166506D02*
X140969Y165729D01*
X138494Y166506D02*
X139271Y165729D01*
X141746Y163254D02*
X140969Y164031D01*
X184046Y205906D02*
X183269Y205129D01*
X180794Y205906D02*
X181571Y205129D01*
X180794Y202654D02*
X181571Y203431D01*
X184046Y202654D02*
X183269Y203431D01*
X179746Y169906D02*
X178969Y169129D01*
X176494Y169906D02*
X177271Y169129D01*
X176494Y166654D02*
X177271Y167431D01*
X179746Y166654D02*
X178969Y167431D01*
X125946Y149906D02*
X125169Y149129D01*
X122694Y149906D02*
X123471Y149129D01*
X163266Y116426D02*
X162489Y115649D01*
X160014Y113174D02*
X160791Y113951D01*
G74*
X0Y0D02*
M02*
