*
*
G04 PADS 9.3.1 Build Number: 461647 generated Gerber (RS-274-X) file*
G04 PC Version=2.1*
*
%IN "1x1_test(routed).pcb"*%
*
%MOIN*%
*
%FSLAX35Y35*%
*
*
*
*
G04 PC Standard Apertures*
*
*
G04 Thermal Relief Aperture macro.*
%AMTER*
1,1,$1,0,0*
1,0,$1-$2,0,0*
21,0,$3,$4,0,0,45*
21,0,$3,$4,0,0,135*
%
*
*
G04 Annular Aperture macro.*
%AMANN*
1,1,$1,0,0*
1,0,$2,0,0*
%
*
*
G04 Odd Aperture macro.*
%AMODD*
1,1,$1,0,0*
1,0,$1-0.005,0,0*
%
*
*
G04 PC Custom Aperture Macros*
*
*
*
*
*
*
G04 PC Aperture Table*
*
%ADD017C,0.01*%
%ADD019R,0.07X0.07*%
%ADD021C,0.07*%
%ADD023C,0.001*%
%ADD071R,0.03X0.045*%
%ADD073R,0.045X0.03*%
%ADD074C,0.042*%
%ADD076C,0.056*%
%ADD081C,0.034*%
%ADD082R,0.089X0.073*%
%ADD083R,0.03756X0.08087*%
%ADD084R,0.04937X0.0415*%
%ADD085R,0.04937X0.05724*%
%ADD086R,0.04937X0.12024*%
%ADD087R,0.06118X0.0848*%
*
*
*
*
G04 PC Circuitry*
G04 Layer Name 1x1_test(routed).pcb - circuitry*
%LPD*%
*
*
G04 PC Custom Flashes*
G04 Layer Name 1x1_test(routed).pcb - flashes*
%LPD*%
*
*
G04 PC Circuitry*
G04 Layer Name 1x1_test(routed).pcb - circuitry*
%LPD*%
*
G54D17*
G01X99530Y210930D02*
X220930D01*
Y99580*
X99530*
Y210930*
G54D19*
X144780Y105320D03*
X104700Y174810D03*
X205200Y105320D03*
X215020Y205600D03*
G54D21*
X117420Y205380D03*
Y195380D03*
Y185380D03*
Y175380D03*
Y165380D03*
Y155380D03*
Y145380D03*
Y135380D03*
X202420D03*
Y145380D03*
Y155380D03*
Y165380D03*
Y175380D03*
Y185380D03*
Y195380D03*
Y205380D03*
X134780Y105320D03*
X124780D03*
X114780D03*
X104700Y184810D03*
Y194810D03*
Y204810D03*
X195200Y105320D03*
X185200D03*
X175200D03*
X215020Y195600D03*
Y185600D03*
Y175600D03*
G54D23*
G54D71*
X122400Y113940D03*
X128000D03*
X118360D03*
X112760D03*
G54D73*
X198020Y120680D03*
Y115080D03*
X192600Y124530D03*
Y130130D03*
X195530Y205340D03*
Y199740D03*
X192710Y120490D03*
Y114890D03*
G54D74*
X146610Y117360D03*
X142210D03*
G54D76*
X205120Y120680D03*
Y114680D03*
G54D81*
X112720Y118080D03*
X127820Y117780D03*
X132220Y116880D03*
X163420Y112380D03*
X161640Y114800D03*
X167930Y114220D03*
X176620Y113880D03*
X123420Y129480D03*
X129020Y125080D03*
X121920Y126680D03*
X158160Y124500D03*
X160170Y131290D03*
X167220Y131280D03*
X163610Y131260D03*
X171620Y130680D03*
X181120Y129280D03*
X124320Y140880D03*
X161320Y138880D03*
X163420Y136680D03*
X168020Y140380D03*
X183820Y141380D03*
X191320Y135980D03*
X200220Y140180D03*
X128620Y151280D03*
X124320Y145280D03*
Y148280D03*
X157120Y151280D03*
X160620Y151480D03*
X128320Y155080D03*
X137520Y159180D03*
X157420Y156180D03*
X155220Y153680D03*
X160420Y155980D03*
X151720Y157280D03*
X155220Y158280D03*
X165020Y155380D03*
X163320Y158080D03*
X185120Y159180D03*
X132920Y161640D03*
X136320Y163580D03*
X137720Y170480D03*
X140120Y164880D03*
X145320Y167980D03*
X149020Y163880D03*
X163990Y167070D03*
X164020Y170280D03*
X178120Y168280D03*
X171610Y180650D03*
X185920Y177880D03*
X207620Y181280D03*
X126420Y191280D03*
X141720Y186580D03*
X159520Y183080D03*
X171610Y189980D03*
X200720Y200580D03*
X189520Y203880D03*
X182420Y204280D03*
X207630Y208020D03*
G54D82*
X152100Y124120D03*
X173300D03*
X114750Y123660D03*
X135950D03*
G54D83*
X163266Y144357D03*
X158935D03*
X154604D03*
X150274D03*
X145943D03*
X141612D03*
X137281D03*
X132951D03*
X128620D03*
G54D84*
X124486Y186876D03*
G54D85*
Y162467D03*
X169762Y145538D03*
G54D86*
X124486Y203215D03*
G54D87*
X174683Y204987D03*
X0Y0D02*
M02*
