%
T1C.01F095S3
X012782Y011778
X011272Y011808
X012902Y012508
X012192Y012668
X012342Y012948
X012432Y014088
X012432Y014528
X012432Y014828
X012862Y015128
X012832Y015508
X012642Y019128
X014172Y018658
X013772Y017048
X014532Y016798
X014012Y016488
X014902Y016388
X013632Y016358
X013292Y016164
X013752Y015918
X015172Y015728
X013222Y011688
X016342Y011238
X017662Y011388
X016793Y011422
X016164Y01148
X015816Y01245
X017162Y013068
X016361Y013126
X016722Y013128
X016017Y013129
X016342Y013668
X016132Y013888
X016802Y014038
X015712Y015128
X016062Y015148
X015522Y015368
X016502Y015538
X016042Y015598
X015742Y015618
X016332Y015808
X015522Y015828
X016399Y016707
X017812Y016828
X016402Y017028
X017161Y018065
X015952Y018308
X017161Y018998
X018242Y020428
X018952Y020388
X020072Y020058
X018592Y017788
X018512Y015918
X018382Y014138
X020022Y014018
X019132Y013598
X018112Y012928
X020762Y018128
X020763Y020802
T2C.016F095S3
X014661Y011736
X014221Y011736
T3C.03F197S55
X020512Y011468
X020512Y012068
T4C.035F197S55
X012478Y010532
X011478Y010532
X01047Y017481
X01047Y018481
X01047Y019481
X01047Y020481
X014478Y010532
X013478Y010532
X01752Y010532
X01952Y010532
X01852Y010532
X02052Y010532
X021502Y01756
X021502Y01856
X021502Y01956
X021502Y02056
T5C.044F139S55
X011742Y013538
X011742Y014538
X011742Y015538
X011742Y016538
X011742Y017538
X011742Y018538
X011742Y019538
X011742Y020538
X020242Y020538
X020242Y019538
X020242Y018538
X020242Y017538
X020242Y016538
X020242Y015538
X020242Y014538
X020242Y013538
M30
