*
*
G04 PADS 9.3.1 Build Number: 461647 generated Gerber (RS-274-X) file*
G04 PC Version=2.1*
*
%IN "1x1_test(routed).pcb"*%
*
%MOIN*%
*
%FSLAX35Y35*%
*
*
*
*
G04 PC Standard Apertures*
*
*
G04 Thermal Relief Aperture macro.*
%AMTER*
1,1,$1,0,0*
1,0,$1-$2,0,0*
21,0,$3,$4,0,0,45*
21,0,$3,$4,0,0,135*
%
*
*
G04 Annular Aperture macro.*
%AMANN*
1,1,$1,0,0*
1,0,$2,0,0*
%
*
*
G04 Odd Aperture macro.*
%AMODD*
1,1,$1,0,0*
1,0,$1-0.005,0,0*
%
*
*
G04 PC Custom Aperture Macros*
*
*
*
*
*
*
G04 PC Aperture Table*
*
%ADD010R,0.06X0.06*%
%ADD012C,0.06*%
%ADD015C,0.012*%
%ADD017C,0.01*%
%ADD023C,0.001*%
%ADD024O,0.00906X0.03937*%
%ADD025R,0.00906X0.03937*%
%ADD026R,0.03937X0.00906*%
%ADD027R,0.20079X0.20079*%
%ADD028R,0.01969X0.08858*%
%ADD029R,0.07874X0.09843*%
%ADD030O,0.01181X0.02362*%
%ADD031R,0.01181X0.02362*%
%ADD032R,0.02362X0.01181*%
%ADD033R,0.12598X0.12598*%
%ADD034R,0.022X0.04*%
%ADD035O,0.022X0.04*%
%ADD036R,0.02X0.035*%
%ADD037R,0.04X0.012*%
%ADD038R,0.035X0.02*%
%ADD039C,0.032*%
%ADD040R,0.06X0.045*%
%ADD041C,0.046*%
%ADD042O,0.01969X0.01181*%
%ADD043R,0.01969X0.01181*%
%ADD044R,0.01181X0.01969*%
%ADD045R,0.1063X0.10236*%
%ADD046C,0.008*%
%ADD047C,0.024*%
*
*
*
*
G04 PC Circuitry*
G04 Layer Name 1x1_test(routed).pcb - circuitry*
%LPD*%
*
*
G04 PC Custom Flashes*
G04 Layer Name 1x1_test(routed).pcb - flashes*
%LPD*%
*
*
G04 PC Circuitry*
G04 Layer Name 1x1_test(routed).pcb - circuitry*
%LPD*%
*
G54D10*
G01X144780Y105320D03*
X104700Y174810D03*
X205200Y105320D03*
X215020Y205600D03*
G54D12*
X117420Y205380D03*
Y195380D03*
Y185380D03*
Y175380D03*
Y165380D03*
Y155380D03*
Y145380D03*
Y135380D03*
X202420D03*
Y145380D03*
Y155380D03*
Y165380D03*
Y175380D03*
Y185380D03*
Y195380D03*
Y205380D03*
X134780Y105320D03*
X124780D03*
X114780D03*
X104700Y184810D03*
Y194810D03*
Y204810D03*
X195200Y105320D03*
X185200D03*
X175200D03*
X215020Y195600D03*
Y185600D03*
Y175600D03*
G54D15*
X205200Y105320D02*
Y109670D01*
X208620Y113090*
X112720Y118080D02*
X117750D01*
X117930Y118260*
X123510*
Y116060*
X125090Y114480*
X133500*
X133880Y114860*
X136440*
X139610*
X139910Y114560*
X147860*
X151560Y118260*
X136410Y112660D02*
X152310D01*
X136410Y118260D02*
Y120460D01*
X136690Y120740*
X140851*
X141126Y121015*
Y124184*
X136410Y118260D02*
Y114890D01*
X136440Y114860*
X156720Y112660D02*
X157200D01*
Y112600*
X156720Y112660D02*
X156780Y112600D01*
X159010*
X159540Y114800*
X161640*
X151560Y118260D02*
X152310D01*
Y112660D02*
X156720D01*
X163420Y112380D02*
X165120Y111810D01*
X172110*
X161640Y114800D02*
Y118610D01*
X163000*
X163404*
X166699Y120377*
X168099*
X176620Y113880D02*
Y113661D01*
X178718Y111563*
X178957*
X185200Y105320*
X172120Y114790D02*
X172110Y111810D01*
X174660*
X175200Y111270*
Y105320*
X177941Y120377D02*
X176541D01*
Y116637*
X177941*
X174740Y115541D02*
Y122316D01*
X176541Y124117*
X177941*
X174740Y115541D02*
X176620Y113661D01*
Y113880*
X177941Y120377D02*
X182469D01*
X182492Y120400*
X188020*
X182420Y114580D02*
Y113663D01*
X184620Y112380*
X185370Y111630*
X195270*
X196120Y112480*
X198320Y113763*
Y114680*
X188020Y114580D02*
Y120400D01*
X198320Y114680D02*
X205120D01*
Y120680D02*
X208620Y117180D01*
Y113090*
X149000Y124184D02*
Y120820D01*
X151560Y118260*
X156086Y129302D02*
X158500D01*
X160922Y126880*
X174760*
X177160Y129280*
X181120*
X156086Y127333D02*
Y125214D01*
X156620Y124500*
X158160*
X163000Y124210D02*
Y124117D01*
X168099*
X169499*
X172120Y121496*
Y114790*
X171620Y130680D02*
Y134280D01*
X177941Y124117D02*
X179341D01*
X181444Y126220*
X181454*
X183740Y128506*
Y132960*
X196680Y124140D02*
X201660D01*
X205120Y120680*
X147031Y138160D02*
X150968D01*
Y124184*
X147031D02*
Y138160D01*
X142110*
X156086Y139144D02*
X161320D01*
Y138880*
X168020Y140380D02*
X170440Y140280D01*
X171590*
Y139880*
X171620Y134280D02*
X176600D01*
X171590D02*
Y133880D01*
X171620Y134280*
X171590D02*
X171620D01*
X171590Y139880D02*
X173667Y141957D01*
Y143315*
X183820Y141380D02*
Y143792D01*
X185085Y145056*
Y146859*
X183820Y141380D02*
X183870Y141521D01*
X186270Y140668*
X186690Y140248*
X183740Y132960D02*
X184247D01*
X186220Y134933*
Y136063*
X186690Y136533*
Y140248*
X196020Y133680D02*
Y129360D01*
X196680Y128700*
Y124140*
X124320Y148280D02*
X124718D01*
X125980Y147018*
X128134*
X141126*
X142110*
Y138160*
X141126Y147018D02*
Y138160D01*
X142110*
X175636Y143315D02*
Y150796D01*
X176620Y151780*
X185085Y146859D02*
X187269D01*
X188410Y148000*
Y152720*
X188900*
X190620Y148280D02*
Y148202D01*
X192270Y143780*
Y142880*
X192196Y141906D02*
X193823Y140280D01*
Y140037*
X198220Y135640*
X202420*
Y135380*
X192196Y141906D02*
Y142880D01*
X192270*
X196020D02*
Y141656D01*
X200220Y140180*
X196020Y142880D02*
Y148280D01*
X196220*
X140090Y156440D02*
X139183D01*
X137520Y159180*
X139157Y152136D02*
Y156440D01*
X139183*
X141126Y152136D02*
Y147018D01*
X176620Y151780D02*
X176180D01*
X182150Y156690*
X182161Y156701*
X185085*
Y159145D02*
X185120Y159180D01*
X185085Y159145D02*
X185120Y159180D01*
X185085Y159145D02*
X185085D01*
X185085*
Y156701D02*
X185085D01*
Y157080*
X187709Y158320D02*
X188900D01*
X185085Y157080D02*
X188860D01*
Y158280*
X188900Y158320*
X185085Y157080D02*
Y159145D01*
Y157080D02*
Y159145D01*
X185085*
X188900Y158492D02*
Y158320D01*
X185120Y159180D02*
X185120D01*
X185085Y156701D02*
Y157080D01*
X140090Y162040D02*
X140120D01*
Y164880*
X161590Y164140D02*
X163320Y162410D01*
Y158080*
X161590Y164140D02*
Y171244D01*
X163476Y173130*
X168517*
X169820Y171827*
Y170780*
X170420Y170180*
X172560*
X177970Y171380D02*
X182320D01*
Y171780*
X177970Y171380D02*
Y168280D01*
X178120*
X172560Y170180D02*
Y165080D01*
X172620*
X172560Y170180D02*
X172620D01*
Y173130*
X173470Y173980*
X191220*
X194020Y171180*
X204160*
X207620Y174640*
Y175360*
X176080Y164960D02*
Y165581D01*
X178120Y168280*
X141521Y179780D02*
Y186580D01*
X141720*
X154119Y179780D02*
Y182563D01*
X159520*
Y183080*
X172189Y180650D02*
X172206Y180667D01*
X173597Y182058*
X173744*
X173744*
X173935*
X175374Y183497*
X175971*
Y183490*
X172206Y180667D02*
X175781Y177091D01*
X176820*
Y177380*
X171610Y180650D02*
X171899Y180361D01*
X172189Y180650*
X171610D02*
X171916Y180956D01*
X172206Y180667*
X176820Y171780D02*
X177970D01*
Y171380*
X176820Y171780D02*
Y171380D01*
X177970*
X178530Y180931D02*
Y183490D01*
X184436Y189396*
X182467Y180931D02*
Y177380D01*
X185920*
Y177880*
X182320Y177380D02*
X182467D01*
X184436Y180931D02*
Y189396D01*
X207620Y181280D02*
Y175360D01*
X207860Y175600*
X215020*
X171610Y189980D02*
Y204670D01*
X172560Y205620*
X173843Y207820*
X174760*
X185420Y189396D02*
Y185459D01*
X192260*
X185420Y190380D02*
X184436Y189396D01*
Y190380*
X185420*
Y189396*
Y190380D02*
X186404D01*
Y199829*
X194869Y185459D02*
X192260D01*
Y183510*
X192310Y183460*
Y180931*
X186404Y199829D02*
Y204280D01*
X192310Y199829D02*
Y204280D01*
X192320*
X174760Y207820D02*
X189530D01*
X192320Y205030*
Y204280*
X174760Y202220D02*
X175510D01*
X177570Y204280*
X182420*
X186720D02*
X186404D01*
X182420*
G54D17*
X152937Y124184D02*
X154490D01*
X157200Y121473*
Y118200*
X176600Y139880D02*
X177604D01*
Y143315*
X179573Y160245D02*
Y162329D01*
X181680Y164436*
Y164960*
X99530Y210930D02*
X220930D01*
Y99580*
X99530*
Y210930*
G54D23*
G54D24*
X131283Y124184D03*
G54D25*
X133252D03*
X135220D03*
X137189D03*
X139157D03*
X141126D03*
X143094D03*
X145063D03*
X147031D03*
X149000D03*
X150968D03*
X152937D03*
Y152136D03*
X150968D03*
X149000D03*
X147031D03*
X145063D03*
X143094D03*
X141126D03*
X139157D03*
X137189D03*
X135220D03*
X133252D03*
X131283D03*
G54D26*
X156086Y127333D03*
Y129302D03*
Y131270D03*
Y133239D03*
Y135207D03*
Y137176D03*
Y139144D03*
Y141113D03*
Y143081D03*
Y145050D03*
Y147018D03*
Y148987D03*
X128134D03*
Y147018D03*
Y145050D03*
Y143081D03*
Y141113D03*
Y139144D03*
Y137176D03*
Y135207D03*
Y133239D03*
Y131270D03*
Y129302D03*
Y127333D03*
G54D27*
X142110Y138160D03*
G54D28*
X154119Y179780D03*
X150970D03*
X147820D03*
X144670D03*
X141521D03*
G54D29*
X165340D03*
X130300D03*
X165340Y201434D03*
X130300D03*
G54D30*
X192310Y199829D03*
G54D31*
X190341D03*
X188373D03*
X186404D03*
X184436D03*
X182467D03*
X180499D03*
X178530D03*
Y180931D03*
X180499D03*
X182467D03*
X184436D03*
X186404D03*
X188373D03*
X190341D03*
X192310D03*
G54D32*
X175971Y197270D03*
Y195301D03*
Y193333D03*
Y191364D03*
Y189396D03*
Y187427D03*
Y185459D03*
Y183490D03*
X194869D03*
Y185459D03*
Y187427D03*
Y189396D03*
Y191364D03*
Y193333D03*
Y195301D03*
Y197270D03*
G54D33*
X185420Y190380D03*
G54D34*
X196020Y142880D03*
G54D35*
X192270D03*
X188520D03*
Y133680D03*
X196020D03*
G54D36*
X196220Y148280D03*
X190620D03*
X188020Y114580D03*
X182420D03*
X181680Y164960D03*
X176080D03*
X198320Y114680D03*
X192720D03*
X192320Y204280D03*
X186720D03*
X167020Y170180D03*
X172620D03*
X167020Y165080D03*
X172620D03*
G54D37*
X168099Y124117D03*
Y120377D03*
Y116637D03*
X177941D03*
Y120377D03*
Y124117D03*
G54D38*
X163000Y124210D03*
Y118610D03*
X171590Y139880D03*
Y134280D03*
X188900Y152720D03*
Y158320D03*
X174760Y202220D03*
Y207820D03*
X157200Y118200D03*
Y112600D03*
X152310Y118260D03*
Y112660D03*
X136410Y118260D03*
Y112660D03*
X140090Y156440D03*
Y162040D03*
X123510Y118260D03*
Y123860D03*
X176820Y177380D03*
Y171780D03*
X183740Y132960D03*
Y138560D03*
X182320Y177380D03*
Y171780D03*
X176600Y139880D03*
Y134280D03*
G54D39*
X146610Y117360D03*
X142210D03*
G54D40*
X188020Y127880D03*
Y120400D03*
X196680Y124140D03*
G54D41*
X205120Y120680D03*
Y114680D03*
G54D42*
X168155Y156701D03*
G54D43*
Y154733D03*
Y152764D03*
Y150796D03*
Y148827D03*
Y146859D03*
X185085D03*
Y148827D03*
Y150796D03*
Y152764D03*
Y154733D03*
Y156701D03*
G54D44*
X171699Y143315D03*
X173667D03*
X175636D03*
X177604D03*
X179573D03*
X181541D03*
Y160245D03*
X179573D03*
X177604D03*
X175636D03*
X173667D03*
X171699D03*
G54D45*
X176620Y151780D03*
G54D46*
X127820Y117780D02*
Y120860D01*
X129830Y122870*
X131283*
Y124184*
X132220Y116880D02*
Y119630D01*
X133252Y120662*
Y124184*
X142210Y117360D02*
X142340D01*
Y119960*
X143094Y120714*
Y124184*
X167930Y114220D02*
Y116448D01*
X168099Y116637*
X113420Y129786D02*
X121346Y121860D01*
X125674*
X126565Y122751*
Y127333*
X128134*
X113420Y129786D02*
Y147210D01*
X117420Y151210*
Y155380*
X121130Y128851D02*
Y130301D01*
X122509Y131680*
X124540*
X124950Y131270*
X128134*
X121130Y128851D02*
X121830Y126651D01*
X121920Y126680*
X123420Y129480D02*
X127887Y129302D01*
X128134*
X121920Y126680D02*
X122225Y123860D01*
X123510*
X145063Y124184D02*
Y121215D01*
X146318Y119960*
Y117360*
X146610*
X156086Y131270D02*
X160170D01*
Y131290*
X188020Y127880D02*
X188770D01*
X192350Y124300*
Y119800*
X192720Y119430*
Y114680*
X124320Y140880D02*
X127223Y141113D01*
X128134*
X156086D02*
X162199D01*
X164320Y138991*
Y138989*
X166829Y136480*
X179344*
X180980Y138116*
Y140370*
X181541Y140931*
Y143315*
X156086Y137176D02*
X159484D01*
X159980Y136680*
X163420*
X156086Y135207D02*
X161712D01*
X162949Y133970*
X164530*
X167220Y131280*
X156086Y133239D02*
Y133291D01*
X159055*
X159253Y133490*
X161380*
X163610Y131260*
X163420Y136680D02*
X163614Y136874D01*
X166209Y134280*
X167331*
X169420Y132191*
Y129769*
X170709Y128480*
X173314*
X176414Y131580*
X178064*
X180420Y133936*
Y135576*
X183404Y138560*
X183740*
X122120Y144369D02*
X123409Y143080D01*
X124779*
X124780Y143081*
X128134*
X122120Y144369D02*
Y149191D01*
X124209Y151280*
X128620*
X124320Y145280D02*
X127232Y145050D01*
X128134*
X156086Y148987D02*
X161238D01*
X162820Y150569*
X156086Y147018D02*
X161249D01*
X164220Y149989*
X156086Y145050D02*
X161261D01*
X165620Y149409*
X156086Y143081D02*
X162210D01*
X165720Y139571*
Y139569*
X167409Y137880*
X178764*
X179573Y138689*
Y143315*
X188520Y142880D02*
Y138780D01*
X191320Y135980*
X135320Y158109D02*
Y160240D01*
X136320Y161240*
Y163580*
X135320Y158109D02*
X137189Y156240D01*
Y152136*
X149000D02*
Y158380D01*
X149020Y158400*
Y163880*
X150968Y152136D02*
Y153435D01*
X151720Y157280*
X157256Y156016D02*
X159581Y153690D01*
X161521*
X162820Y152391*
Y150569*
X157256Y156016D02*
X157420Y156180D01*
X160420Y155980D02*
X162371Y154820D01*
X164220Y152971*
Y149989*
X155220Y158280D02*
X155484Y158016D01*
X152937Y152136D02*
Y155245D01*
X153920Y156228*
Y156451*
X155484Y158016*
X165020Y155380D02*
X165620Y153180D01*
Y149409*
X132920Y161640D02*
Y158307D01*
X135220Y156007*
Y152136*
X137720Y170480D02*
X139610Y168590D01*
X141501*
X143720Y166371*
Y165285*
X145063Y163942*
Y152136*
X145320Y167980D02*
Y165720D01*
X146640Y164400*
Y159322*
X147031Y158931*
Y152136*
X163990Y167070D02*
X167020Y166272D01*
Y165080*
X164020Y170280D02*
X167020D01*
Y170180*
Y165080D02*
Y162330D01*
X169105Y160245*
X171699*
X167020Y170180D02*
Y169430D01*
X169820Y166630*
Y163716*
X171256Y162280*
X173616*
X173667Y162229*
Y160245*
X117420Y175380D02*
X125670Y167130D01*
X140981*
X142320Y165791*
Y164340*
X143094Y163565*
Y152136*
X104700Y184810D02*
X111060Y178450D01*
Y174103*
X115583Y169580*
X118877*
X122500Y165957*
Y164278*
X131283Y155495*
Y152136*
X117420Y185380D02*
X123960Y178840D01*
Y173868*
X127348Y170480*
X137720*
X147699Y183346D02*
X151780Y187427D01*
X175971*
X147699Y183346D02*
Y179780D01*
X147820*
X150849Y183346D02*
X153213Y185710D01*
X171610*
X171861Y185459*
X175971*
X150849Y183346D02*
Y179780D01*
X150970*
X202420Y185380D02*
X208610D01*
X208830Y185600*
X215020*
X104700Y194810D02*
X112460Y187050D01*
Y174683*
X115953Y171190*
X119247*
X124990Y165447*
Y164035*
X133252Y155773*
Y152136*
X117420Y195380D02*
X125360Y187440D01*
Y174448*
X126538Y173270*
X140030*
X145320Y167980*
X194869Y193333D02*
X197050D01*
X197730Y194013*
Y197590*
X200720Y200580*
X202420Y195380D02*
X208610D01*
X208830Y195600*
X215020*
X189520Y203880D02*
X190151Y200610D01*
Y199829*
X190341*
G54D47*
X112720Y118080D03*
X127820Y117780D03*
X132220Y116880D03*
X163420Y112380D03*
X161640Y114800D03*
X167930Y114220D03*
X176620Y113880D03*
X123420Y129480D03*
X129020Y125080D03*
X121920Y126680D03*
X158160Y124500D03*
X160170Y131290D03*
X167220Y131280D03*
X163610Y131260D03*
X171620Y130680D03*
X181120Y129280D03*
X124320Y140880D03*
X161320Y138880D03*
X163420Y136680D03*
X168020Y140380D03*
X183820Y141380D03*
X191320Y135980D03*
X200220Y140180D03*
X128620Y151280D03*
X124320Y145280D03*
Y148280D03*
X157120Y151280D03*
X160620Y151480D03*
X128320Y155080D03*
X137520Y159180D03*
X157420Y156180D03*
X155220Y153680D03*
X160420Y155980D03*
X151720Y157280D03*
X155220Y158280D03*
X165020Y155380D03*
X163320Y158080D03*
X185120Y159180D03*
X132920Y161640D03*
X136320Y163580D03*
X137720Y170480D03*
X140120Y164880D03*
X145320Y167980D03*
X149020Y163880D03*
X163990Y167070D03*
X164020Y170280D03*
X178120Y168280D03*
X171610Y180650D03*
X185920Y177880D03*
X207620Y181280D03*
X126420Y191280D03*
X141720Y186580D03*
X159520Y183080D03*
X171610Y189980D03*
X200720Y200580D03*
X189520Y203880D03*
X182420Y204280D03*
X207630Y208020D03*
X0Y0D02*
M02*
