*
*
G04 PADS 9.3.1 Build Number: 461647 generated Gerber (RS-274-X) file*
G04 PC Version=2.1*
*
%IN "1x1_test(routed).pcb"*%
*
%MOIN*%
*
%FSLAX35Y35*%
*
*
*
*
G04 PC Standard Apertures*
*
*
G04 Thermal Relief Aperture macro.*
%AMTER*
1,1,$1,0,0*
1,0,$1-$2,0,0*
21,0,$3,$4,0,0,45*
21,0,$3,$4,0,0,135*
%
*
*
G04 Annular Aperture macro.*
%AMANN*
1,1,$1,0,0*
1,0,$2,0,0*
%
*
*
G04 Odd Aperture macro.*
%AMODD*
1,1,$1,0,0*
1,0,$1-0.005,0,0*
%
*
*
G04 PC Custom Aperture Macros*
*
*
*
*
*
*
G04 PC Aperture Table*
*
%ADD017C,0.01*%
%ADD023C,0.001*%
%ADD046C,0.008*%
%ADD048C,0.006*%
%ADD056C,0.00787*%
%ADD057C,0.00787*%
%ADD058C,0.005*%
*
*
*
*
G04 PC Circuitry*
G04 Layer Name 1x1_test(routed).pcb - circuitry*
%LPD*%
*
*
G04 PC Custom Flashes*
G04 Layer Name 1x1_test(routed).pcb - flashes*
%LPD*%
*
*
G04 PC Circuitry*
G04 Layer Name 1x1_test(routed).pcb - circuitry*
%LPD*%
*
G54D17*
G01X168020Y114877D02*
Y113377D01*
X178020*
Y114877*
Y125877D02*
Y127377D01*
X168020*
Y125877*
X149780Y100320D02*
X109780D01*
Y110320*
X149780*
Y100320*
X99700Y169810D02*
Y209810D01*
X109700*
Y169810*
X99700*
X210200Y100320D02*
X170200D01*
Y110320*
X210200*
Y100320*
X220020Y210600D02*
Y170600D01*
X210020*
Y210600*
X220020*
X217235Y166178D02*
X217860Y166633D01*
X218173Y167315*
X218173D02*
Y168224D01*
X218173D02*
X217860Y168905D01*
X217235Y169360*
X216610*
X215985Y169133*
X215673Y168905*
X215673D02*
X215360Y168451D01*
X214735Y167087*
X214423Y166633*
X214423D02*
X214110Y166405D01*
X213485Y166178*
X212548*
X212548D02*
X211923Y166633D01*
X211923D02*
X211610Y167315D01*
Y168224*
X211923Y168905*
X211923D02*
X212548Y169360D01*
X218173Y164133D02*
X211610D01*
X218173D02*
Y162087D01*
X218173D02*
X217860Y161405D01*
X217548Y161178*
X217548D02*
X216923Y160951D01*
X216923D02*
X216298D01*
X216298D02*
X215673Y161178D01*
X215673D02*
X215360Y161405D01*
X215048Y162087*
Y164133D02*
Y162087D01*
X215048D02*
X214735Y161405D01*
X214423Y161178*
X214423D02*
X213798Y160951D01*
X213798D02*
X212860D01*
X212235Y161178*
X211923Y161405*
X211923D02*
X211610Y162087D01*
Y164133*
X218173Y158905D02*
X211610Y157769D01*
X218173Y156633D02*
X211610Y157769D01*
X218173Y156633D02*
X211610Y155496D01*
X218173Y154360D02*
X211610Y155496D01*
X108503Y166889D02*
X101940D01*
X108503Y168480D02*
Y165298D01*
Y163253D02*
X101940D01*
X108503D02*
Y160298D01*
X105378Y163253D02*
Y161435D01*
X101940Y163253D02*
Y160298D01*
X107565Y155071D02*
X108190Y155525D01*
X108503Y156207*
X108503D02*
Y157116D01*
X108503D02*
X108190Y157798D01*
X107565Y158253*
X106940*
X106315Y158025*
X106003Y157798*
X106003D02*
X105690Y157344D01*
X105065Y155980*
X104753Y155525*
X104753D02*
X104440Y155298D01*
X103815Y155071*
X102878*
X102878D02*
X102253Y155525D01*
X102253D02*
X101940Y156207D01*
Y157116*
X102253Y157798*
X102253D02*
X102878Y158253D01*
X108503Y151435D02*
X101940D01*
X108503Y153025D02*
Y149844D01*
X99530Y210930D02*
X220930D01*
Y99580*
X99530*
Y210930*
X109990Y210360D02*
Y110390D01*
X210030*
Y210360*
X109990*
G54D23*
G54D46*
X127129Y149760D02*
X129472D01*
X129472D02*
X129941Y149874D01*
X130254Y150101*
X130410Y150442*
Y150669*
X130254Y151010*
X129941Y151237*
X129472Y151351*
X129472D02*
X127129D01*
X127754Y152374D02*
X127597Y152601D01*
X127597D02*
X127129Y152942D01*
X130410*
X193840Y180031D02*
Y177688D01*
X193954Y177219*
X194181Y176906*
X194522Y176750*
X194749*
X195090Y176906*
X195317Y177219*
X195431Y177688*
Y180031*
X196567Y179250D02*
Y179406D01*
X196681Y179719*
X196795Y179875*
X197022Y180031*
X197476*
X197704Y179875*
X197817Y179719*
X197931Y179406*
Y179094*
X197817Y178781*
X197590Y178313*
X196454Y176750*
X198045*
X170940Y117731D02*
Y115388D01*
X170940D02*
X171054Y114919D01*
X171281Y114606*
X171622Y114450*
X171849*
X172190Y114606*
X172417Y114919*
X172531Y115388*
X172531D02*
Y117731D01*
X174690D02*
X173554Y115544D01*
X175258*
X174690Y117731D02*
Y114450D01*
X164120Y160901D02*
Y158558D01*
X164120D02*
X164234Y158089D01*
X164461Y157776*
X164802Y157620*
X165029*
X165370Y157776*
X165597Y158089*
X165711Y158558*
X165711D02*
Y160901D01*
X168097Y160433D02*
X167984Y160745D01*
X167643Y160901*
X167415*
X167075Y160745*
X166847Y160276*
X166734Y159495*
Y158714*
X166847Y158089*
X167075Y157776*
X167415Y157620*
X167529*
X167870Y157776*
X168097Y158089*
X168211Y158558*
X168211D02*
Y158714D01*
X168097Y159183*
X168097D02*
X167870Y159495D01*
X167529Y159651*
X167415*
X167075Y159495*
X166847Y159183*
X166847D02*
X166734Y158714D01*
G54D48*
X198020Y136380D02*
Y140180D01*
X186520*
Y136380*
X198020*
X197820Y145980D02*
Y150580D01*
X189020*
Y145980*
X197820*
X165300Y125810D02*
X160700D01*
Y117010*
X165300*
Y125810*
X173890Y141480D02*
X169290D01*
Y132680*
X173890*
Y141480*
X189620Y112280D02*
Y116880D01*
X180820*
Y112280*
X189620*
X186600Y151120D02*
X191200D01*
Y159920*
X186600*
Y151120*
X183280Y162660D02*
Y167260D01*
X174480*
Y162660*
X183280*
X172360Y200620D02*
X177160D01*
Y209420*
X172360*
Y200620*
X159500Y119800D02*
X154900D01*
Y111000*
X159500*
Y119800*
X154610Y119860D02*
X150010D01*
Y111060*
X154610*
Y119860*
X138710D02*
X134110D01*
Y111060*
X138710*
Y119860*
X137790Y154840D02*
X142390D01*
Y163640*
X137790*
Y154840*
X121110Y116660D02*
X125910D01*
Y125460*
X121110*
Y116660*
X199920Y112280D02*
Y117080D01*
X191120*
Y112280*
X199920*
X193020Y130380D02*
X198020D01*
Y127880*
X193020Y117880D02*
X198020D01*
Y120380*
X179120Y178980D02*
X174520D01*
Y170180*
X179120*
Y178980*
X181340Y131360D02*
X186140D01*
Y140160*
X181340*
Y131360*
X193920Y201980D02*
Y206580D01*
X185120*
Y201980*
X193920*
X184620Y178980D02*
X180020D01*
Y170180*
X184620*
Y178980*
X178900Y141480D02*
X174300D01*
Y132680*
X178900*
Y141480*
X165420Y172580D02*
Y167780D01*
X174220*
Y172580*
X165420*
Y167480D02*
Y162680D01*
X174220*
Y167480*
X165420*
X128946Y105071D02*
Y102571D01*
X128833Y102103*
X128833D02*
X128719Y101946D01*
X128492Y101790*
X128265*
X128037Y101946*
X127924Y102103*
X127924D02*
X127810Y102571D01*
Y102884*
X130537Y105071D02*
X130196Y104915D01*
X130083Y104603*
X130083D02*
Y104290D01*
X130196Y103978*
X130196D02*
X130424Y103821D01*
X130878Y103665*
X131219Y103509*
X131446Y103196*
X131560Y102884*
Y102415*
X131446Y102103*
X131446D02*
X131333Y101946D01*
X130992Y101790*
X130537*
X130196Y101946*
X130083Y102103*
X130083D02*
X129969Y102415D01*
Y102884*
X130083Y103196*
X130310Y103509*
X130651Y103665*
X131105Y103821*
X131333Y103978*
X131333D02*
X131446Y104290D01*
Y104603*
X131446D02*
X131333Y104915D01*
X130992Y105071*
X130537*
X105109Y189016D02*
X107609D01*
X108077Y188903*
X108234Y188789*
X108390Y188562*
Y188335*
X108234Y188107*
X108077Y187994*
X107609Y187880*
X107296*
X105109Y191516D02*
Y190380D01*
X106515Y190266*
X106359Y190380*
X106202Y190721*
Y191062*
X106359Y191403*
X106671Y191630*
X107140Y191744*
X107452Y191630*
X107921Y191516*
X108234Y191289*
X108390Y190948*
Y190607*
X108234Y190266*
X108077Y190153*
X107765Y190039*
X189556Y104671D02*
Y102171D01*
X189443Y101703*
X189443D02*
X189329Y101546D01*
X189102Y101390*
X188875*
X188647Y101546*
X188534Y101703*
X188534D02*
X188420Y102171D01*
Y102484*
X192056Y103578D02*
X191943Y103109D01*
X191715Y102796*
X191375Y102640*
X191261*
X190920Y102796*
X190693Y103109*
X190579Y103578*
X190579D02*
Y103734D01*
X190693Y104203*
X190693D02*
X190920Y104515D01*
X191261Y104671*
X191375*
X191715Y104515*
X191943Y104203*
X191943D02*
X192056Y103578D01*
X192056D02*
Y102796D01*
X191943Y102015*
X191715Y101546*
X191375Y101390*
X191147*
X190806Y101546*
X190693Y101859*
X214801Y191464D02*
X212301D01*
X211833Y191577*
X211676Y191691*
X211520Y191918*
Y192145*
X211676Y192373*
X211833Y192486*
X212301Y192600*
X212614*
X214333Y189077D02*
X214645Y189191D01*
X214801Y189532*
Y189759*
X214645Y190100*
X214176Y190327*
X213395Y190441*
X212614*
X211989Y190327*
X211676Y190100*
X211520Y189759*
Y189645*
X211676Y189305*
X211989Y189077*
X212458Y188964*
X212614*
X213083Y189077*
X213395Y189305*
X213551Y189645*
Y189759*
X213395Y190100*
X213083Y190327*
X212614Y190441*
X217276Y151135D02*
X216964Y151362D01*
X216495Y151589*
X215870Y151816*
X215089Y151930*
X214464*
X213683Y151816*
X213683D02*
X213057Y151589D01*
X213057D02*
X212589Y151362D01*
X212276Y151135*
X215870Y148407D02*
X216183Y148521D01*
X216183D02*
X216495Y148748D01*
X216651Y148975*
Y149430*
X216495Y149657*
X216183Y149885*
X216183D02*
X215870Y149998D01*
X215401Y150112*
X214620*
X214151Y149998*
X213839Y149885*
X213526Y149657*
X213370Y149430*
Y148975*
X213526Y148748*
X213839Y148521*
X214151Y148407*
X214620*
Y148975D02*
Y148407D01*
X216651Y147385D02*
X213370D01*
X216651D02*
X213370Y145794D01*
X216651D02*
X213370D01*
X216651Y144771D02*
X213370D01*
X216651D02*
Y143975D01*
X216495Y143635*
X216183Y143407*
X216183D02*
X215870Y143294D01*
X215401Y143180*
X214620*
X214151Y143294*
X213839Y143407*
X213526Y143635*
X213370Y143975*
Y144771*
X213526Y141930D02*
X213370Y142044D01*
X213526Y142157*
X213683Y142044*
X213683D02*
X213526Y141930D01*
X213214*
X212901Y142044*
X212745Y142157*
X216651Y138294D02*
X213370D01*
X216651D02*
Y137271D01*
X216495Y136930*
X216339Y136816*
X216026Y136703*
X215714*
X215401Y136816*
X215245Y136930*
X215089Y137271*
Y138294*
Y137498D02*
X213370Y136703D01*
X216183Y134089D02*
X216495Y134316D01*
X216651Y134657*
Y135112*
X216495Y135453*
X216183Y135680*
X216183D02*
X215870D01*
X215558Y135566*
X215558D02*
X215401Y135453D01*
X215245Y135225*
X214933Y134544*
X214933D02*
X214776Y134316D01*
X214620Y134203*
X214308Y134089*
X214308D02*
X213839D01*
X213526Y134316*
X213370Y134657*
Y135112*
X213526Y135453*
X213839Y135680*
X216651Y132271D02*
X213370D01*
X216651Y133066D02*
Y131475D01*
X213526Y130225D02*
X213370Y130339D01*
X213526Y130453*
X213683Y130339*
X213683D02*
X213526Y130225D01*
X213214*
X212901Y130339*
X212745Y130453*
X216651Y125794D02*
X213370D01*
X216651Y126589D02*
Y124998D01*
Y123975D02*
X213370D01*
X216651D02*
Y122498D01*
X215089Y123975D02*
Y123066D01*
X213370Y123975D02*
Y122498D01*
X216183Y119885D02*
X216495Y120112D01*
X216651Y120453*
Y120907*
X216495Y121248*
X216183Y121475*
X216183D02*
X215870D01*
X215558Y121362*
X215558D02*
X215401Y121248D01*
X215245Y121021*
X214933Y120339*
X214933D02*
X214776Y120112D01*
X214620Y119998*
X214308Y119885*
X214308D02*
X213839D01*
X213526Y120112*
X213370Y120453*
Y120907*
X213526Y121248*
X213839Y121475*
X216651Y118066D02*
X213370D01*
X216651Y118862D02*
Y117271D01*
X213526Y116021D02*
X213370Y116135D01*
X213526Y116248*
X213683Y116135*
X213683D02*
X213526Y116021D01*
X213214*
X212901Y116135*
X212745Y116248*
X216651Y112385D02*
X213370Y111475D01*
X216651Y110566D02*
X213370Y111475D01*
X215870Y107839D02*
X216183Y107953D01*
X216183D02*
X216495Y108180D01*
X216651Y108407*
Y108862*
X216495Y109089*
X216183Y109316*
X216183D02*
X215870Y109430D01*
X215401Y109544*
X214620*
X214151Y109430*
X213839Y109316*
X213526Y109089*
X213370Y108862*
Y108407*
X213526Y108180*
X213839Y107953*
X214151Y107839*
X215870Y105112D02*
X216183Y105225D01*
X216183D02*
X216495Y105453D01*
X216651Y105680*
Y106135*
X216495Y106362*
X216183Y106589*
X216183D02*
X215870Y106703D01*
X215401Y106816*
X214620*
X214151Y106703*
X213839Y106589*
X213526Y106362*
X213370Y106135*
Y105680*
X213526Y105453*
X213839Y105225*
X214151Y105112*
X217276Y104089D02*
X216964Y103862D01*
X216495Y103635*
X215870Y103407*
X215089Y103294*
X214464*
X213683Y103407*
X213683D02*
X213057Y103635D01*
X213057D02*
X212589Y103862D01*
X212276Y104089*
X107076Y144975D02*
X106764Y145202D01*
X106295Y145429*
X105670Y145656*
X104889Y145770*
X104264*
X103483Y145656*
X103483D02*
X102857Y145429D01*
X102857D02*
X102389Y145202D01*
X102076Y144975*
X106451Y143952D02*
X103170Y143043D01*
X106451Y142134D02*
X103170Y143043D01*
X105670Y139406D02*
X105983Y139520D01*
X105983D02*
X106295Y139747D01*
X106451Y139975*
Y140429*
X106295Y140656*
X105983Y140884*
X105983D02*
X105670Y140997D01*
X105201Y141111*
X104420*
X103951Y140997*
X103639Y140884*
X103326Y140656*
X103170Y140429*
Y139975*
X103326Y139747*
X103639Y139520*
X103951Y139406*
X105670Y136679D02*
X105983Y136793D01*
X105983D02*
X106295Y137020D01*
X106451Y137247*
Y137702*
X106295Y137929*
X105983Y138156*
X105983D02*
X105670Y138270D01*
X105201Y138384*
X104420*
X103951Y138270*
X103639Y138156*
X103326Y137929*
X103170Y137702*
Y137247*
X103326Y137020*
X103639Y136793*
X103951Y136679*
X103326Y135429D02*
X103170Y135543D01*
X103326Y135656*
X103483Y135543*
X103483D02*
X103326Y135429D01*
X103014*
X102701Y135543*
X102545Y135656*
X106451Y130997D02*
X103170D01*
X106451Y131793D02*
Y130202D01*
X105826Y129179D02*
X105983Y128952D01*
X105983D02*
X106451Y128611D01*
X103170*
X103326Y127361D02*
X103170Y127475D01*
X103326Y127588*
X103483Y127475*
X103483D02*
X103326Y127361D01*
X103014*
X102701Y127475*
X102545Y127588*
X106451Y122929D02*
X103170D01*
X106451Y123725D02*
Y122134D01*
X105670Y120997D02*
X105826D01*
X106139Y120884*
X106295Y120770*
X106451Y120543*
Y120088*
X106295Y119861*
X106139Y119747*
X105826Y119634*
X105514*
X105201Y119747*
X104733Y119975*
X104733D02*
X103170Y121111D01*
Y119520*
X103326Y118270D02*
X103170Y118384D01*
X103326Y118497*
X103483Y118384*
X103483D02*
X103326Y118270D01*
X103014*
X102701Y118384*
X102545Y118497*
X105670Y112929D02*
X105983Y113043D01*
X105983D02*
X106295Y113270D01*
X106451Y113497*
Y113952*
X106295Y114179*
X105983Y114406*
X105983D02*
X105670Y114520D01*
X105201Y114634*
X104420*
X103951Y114520*
X103639Y114406*
X103326Y114179*
X103170Y113952*
Y113497*
X103326Y113270*
X103639Y113043*
X103951Y112929*
X104420*
Y113497D02*
Y112929D01*
X106451Y111906D02*
X103170D01*
X106451D02*
X103170Y110315D01*
X106451D02*
X103170D01*
X106451Y109293D02*
X103170D01*
X106451D02*
Y108497D01*
X106295Y108156*
X105983Y107929*
X105983D02*
X105670Y107815D01*
X105201Y107702*
X104420*
X103951Y107815*
X103639Y107929*
X103326Y108156*
X103170Y108497*
Y109293*
X107076Y106679D02*
X106764Y106452D01*
X106295Y106225*
X105670Y105997*
X104889Y105884*
X104264*
X103483Y105997*
X103483D02*
X102857Y106225D01*
X102857D02*
X102389Y106452D01*
X102076Y106679*
G54D56*
X152740Y127530D02*
Y148790D01*
X131480*
Y127530*
X152740*
X178530Y197270D02*
Y183490D01*
X192310*
Y197270*
X178530*
X169337Y156111D02*
Y157292D01*
X170518Y156701*
X169337Y156111*
X168746Y159654D02*
X184494D01*
Y143906*
X168746*
Y159654*
X174651Y151780D02*
X176620D01*
Y153749*
Y149811D02*
Y151780D01*
X178589*
G54D57*
X149198Y191197D02*
X147820Y189819D01*
X146442Y191197*
X147426*
Y207142*
X148214*
Y191197*
X149198*
G54D58*
X148810Y119560D02*
Y115160D01*
X140010*
Y119560*
X148810*
X200320Y122880D02*
X201320D01*
X200820Y123380D02*
Y122380D01*
X201020Y113380D02*
Y112380D01*
X201920Y123680D02*
Y111680D01*
X208520*
Y123680*
X201920*
X147046Y188531D02*
Y186031D01*
X146933Y185563*
X146933D02*
X146819Y185406D01*
X146592Y185250*
X146365*
X146137Y185406*
X146024Y185563*
X146024D02*
X145910Y186031D01*
Y186344*
X148069Y187906D02*
X148296Y188063D01*
X148296D02*
X148637Y188531D01*
Y185250*
X0Y0D02*
M02*
